<svg width="20" height="20" viewBox="0 0 20 20" fill="none" xmlns="http://www.w3.org/2000/svg">
<path d="M17.5857 0H14.4824V2.06907H17.5857V2.06883C17.6771 2.06883 17.7649 2.10515 17.8296 2.16985C17.8943 2.23455 17.9306 2.32235 17.9306 2.41374V5.51703H19.9997L19.9995 2.41374C19.9995 1.77348 19.7452 1.15963 19.2926 0.706926C18.8399 0.254246 18.2261 3.66432e-05 17.5857 3.66432e-05L17.5857 0Z" fill="black"/>
<path d="M17.9306 17.5857C17.9306 17.6771 17.8943 17.7649 17.8296 17.8296C17.7649 17.8943 17.6771 17.9306 17.5857 17.9306H14.4824V19.9997H17.5857V19.9994C18.226 19.9994 18.8398 19.7452 19.2925 19.2925C19.7452 18.8399 19.9994 18.226 19.9994 17.5857V14.4824H17.9306L17.9306 17.5857Z" fill="black"/>
<path d="M2.41374 19.9995H5.51703V17.9306H2.41374C2.22324 17.9306 2.06882 17.7762 2.06882 17.5857V14.4824H0V17.5857C0 18.226 0.25424 18.8398 0.706889 19.2925C1.15957 19.7452 1.77338 19.9994 2.4137 19.9994L2.41374 19.9995Z" fill="black"/>
<path d="M2.06878 2.41374C2.06878 2.22324 2.2232 2.06882 2.41371 2.06882H5.517V0H2.41371C1.77344 0 1.15959 0.25424 0.706889 0.706889C0.254209 1.15957 0 1.77338 0 2.4137V5.517H2.06907L2.06878 2.41374Z" fill="black"/>
<path d="M14.483 5.51758H5.51758V7.58664H8.96582V15.1728H11.0349V7.58664H14.4831L14.483 5.51758Z" fill="black"/>
</svg>
