<svg width="15" height="16" viewBox="0 0 15 16" fill="none" xmlns="http://www.w3.org/2000/svg">
<path d="M6.89592 16C6.75426 15.95 6.60842 15.9125 6.47926 15.8417C5.94592 15.5542 5.69592 14.925 5.87926 14.35C6.06259 13.7792 6.64176 13.4 7.23342 13.475C7.84176 13.55 8.30426 14.0375 8.34592 14.6542C8.38759 15.2584 7.99176 15.8042 7.40842 15.9584C7.36259 15.9709 7.32092 15.9834 7.27926 16C7.14592 16 7.02092 16 6.89592 16Z" fill="white"/>
<path d="M7.27084 0C7.35834 0.0291667 7.45 0.0541667 7.53334 0.0875C8.11667 0.3125 8.45417 0.933333 8.31667 1.53333C8.17917 2.15417 7.62917 2.56667 6.99584 2.52917C6.39167 2.49583 5.8875 2.00417 5.82917 1.39167C5.77084 0.758333 6.16667 0.191667 6.77917 0.0375C6.81667 0.0291667 6.85834 0.0125 6.89584 0C7.02084 0 7.14584 0 7.27084 0Z" fill="white"/>
<path d="M12.9084 3.37087C13.6125 3.37504 14.1709 3.94171 14.1667 4.64587C14.1625 5.33754 13.5875 5.90421 12.9 5.90004C12.2 5.89587 11.6334 5.31671 11.6417 4.61671C11.6459 3.92504 12.2125 3.36671 12.9084 3.37087Z" fill="white"/>
<path d="M1.2625 3.37085C1.95833 3.37085 2.52083 3.92918 2.525 4.62502C2.52917 5.32502 1.95833 5.90002 1.2625 5.90002C0.5625 5.90418 0 5.32918 0 4.62502C0 3.92918 0.5625 3.37085 1.2625 3.37085Z" fill="white"/>
<path d="M1.25836 12.6292C0.55419 12.6292 -0.0041435 12.0625 2.31694e-05 11.3542C0.00418984 10.6583 0.575023 10.0917 1.26252 10.0958C1.95419 10.1 2.52502 10.6708 2.52502 11.3583C2.52919 12.0625 1.96252 12.6333 1.25836 12.6292Z" fill="white"/>
<path d="M12.8834 12.6291C12.1918 12.6249 11.6334 12.0541 11.6334 11.3583C11.6376 10.6624 12.2168 10.0916 12.9126 10.0999C13.6126 10.1083 14.1668 10.6833 14.1584 11.3916C14.1543 12.0833 13.5876 12.6333 12.8834 12.6291Z" fill="white"/>
<path opacity="0.7" d="M5.55841 13.6375C5.56258 13.9042 5.36258 14.0333 5.17091 13.9333C4.98758 13.8375 4.80841 13.7292 4.62925 13.625C4.06675 13.3 3.50425 12.975 2.94175 12.65C2.82925 12.5833 2.74175 12.4875 2.78758 12.3583C2.82091 12.2708 2.91258 12.175 3.00008 12.1458C3.06675 12.1208 3.17925 12.175 3.25425 12.2208C3.91258 12.5958 4.56675 12.975 5.22508 13.3583C5.29591 13.4 5.37508 13.4333 5.43758 13.4875C5.50008 13.5333 5.53758 13.6083 5.55841 13.6375Z" fill="white"/>
<path opacity="0.7" d="M8.88334 2.02917C8.90417 2.03751 8.94167 2.03751 8.97084 2.05834C9.7375 2.50001 10.5042 2.93751 11.2625 3.38751C11.3292 3.42917 11.3833 3.57084 11.3667 3.65001C11.35 3.73334 11.25 3.81251 11.1667 3.85834C11.1208 3.88334 11.025 3.85001 10.9667 3.81667C10.2292 3.39584 9.49167 2.96667 8.75417 2.54167C8.62917 2.47084 8.57917 2.36251 8.61667 2.22501C8.65 2.10417 8.7375 2.03751 8.88334 2.02917Z" fill="white"/>
<path opacity="0.7" d="M11.15 12.1041C11.2167 12.1666 11.3209 12.2208 11.35 12.3041C11.3792 12.3791 11.3375 12.4875 11.3125 12.575C11.3042 12.6083 11.2542 12.6291 11.2167 12.65C10.4875 13.0708 9.75836 13.4916 9.03336 13.9125C8.92503 13.975 8.82086 13.9958 8.71253 13.9166C8.54586 13.7916 8.57086 13.5666 8.76253 13.4541C9.32919 13.125 9.89586 12.8 10.4625 12.4708C10.625 12.3791 10.7834 12.2833 10.95 12.1916C11 12.1625 11.0584 12.1416 11.15 12.1041Z" fill="white"/>
<path opacity="0.7" d="M3.18337 3.82494C3.08271 3.88534 2.94133 3.85042 2.85962 3.76614C2.83775 3.74359 2.81941 3.7192 2.80837 3.69161C2.7792 3.62077 2.82087 3.52077 2.8417 3.43327C2.90837 3.37494 2.88337 3.38744 2.90837 3.37494C3.65837 2.94161 4.40837 2.50411 5.15837 2.07077C5.30004 1.98744 5.4417 2.03327 5.52087 2.16661C5.59587 2.29577 5.56254 2.44577 5.42087 2.52911C4.67504 2.96244 3.9292 3.39577 3.18337 3.82494Z" fill="white"/>
<path opacity="0.7" d="M13.1668 8.00418C13.1668 8.42084 13.1668 8.83751 13.1668 9.25001C13.1668 9.45418 13.0709 9.56251 12.9001 9.56251C12.7334 9.56251 12.6376 9.45001 12.6334 9.24584C12.6334 8.41251 12.6334 7.58334 12.6334 6.75001C12.6334 6.54584 12.7293 6.43334 12.8959 6.43334C13.0709 6.42918 13.1668 6.53751 13.1668 6.75418C13.1668 7.17501 13.1668 7.59168 13.1668 8.00418Z" fill="white"/>
<path opacity="0.7" d="M0.995858 7.99999C0.995858 7.58332 0.995858 7.16666 0.995858 6.75416C0.995858 6.54582 1.08336 6.43749 1.25419 6.43749C1.42919 6.43332 1.52919 6.54582 1.52919 6.75832C1.52919 7.59166 1.52919 8.42082 1.52919 9.25416C1.52919 9.50416 1.31252 9.65416 1.12919 9.52499C1.05836 9.47499 1.00419 9.35416 1.00419 9.26666C0.987524 8.84582 0.995858 8.42082 0.995858 7.99999Z" fill="white"/>
<path opacity="0.7" d="M7.34584 12.3166C7.34584 12.4291 7.35001 12.5458 7.34584 12.6583C7.33751 12.8249 7.23751 12.9291 7.08751 12.9333C6.93751 12.9374 6.82501 12.8333 6.81667 12.6708C6.80834 12.4375 6.80834 12.2041 6.81667 11.9666C6.82084 11.8 6.93334 11.6958 7.08334 11.6999C7.23751 11.7041 7.33751 11.8041 7.34584 11.9708C7.35001 12.0874 7.34584 12.2 7.34584 12.3166Z" fill="white"/>
<path opacity="0.7" d="M6.81669 3.66663C6.81669 3.55413 6.80836 3.43747 6.81669 3.32497C6.82919 3.1708 6.93752 3.0708 7.07919 3.0708C7.22086 3.0708 7.33752 3.1708 7.34169 3.32497C7.35002 3.5708 7.35002 3.81247 7.34169 4.0583C7.33752 4.2083 7.22919 4.29997 7.09169 4.30413C6.94586 4.3083 6.83336 4.21247 6.82086 4.06247C6.80836 3.92497 6.81669 3.7958 6.81669 3.66663Z" fill="white"/>
<path opacity="0.7" d="M11.1168 5.40417C11.2626 5.40417 11.3834 5.52501 11.3834 5.67084C11.3834 5.82084 11.2001 5.97917 11.0293 5.97917C10.8876 5.97917 10.7793 5.86668 10.7751 5.72084C10.7709 5.55834 10.9418 5.40417 11.1168 5.40417Z" fill="white"/>
<path opacity="0.7" d="M3.04166 10.5958C2.89582 10.5958 2.77499 10.4708 2.77916 10.325C2.78332 10.175 2.96666 10.0167 3.13749 10.0208C3.27916 10.025 3.38749 10.1375 3.38749 10.2833C3.38749 10.4458 3.21666 10.6 3.04166 10.5958Z" fill="white"/>
<path opacity="0.7" d="M3.38749 5.71252C3.38749 5.85836 3.27916 5.97086 3.13749 5.97502C2.96666 5.97919 2.78332 5.82086 2.77916 5.67086C2.77499 5.52502 2.89582 5.40002 3.04166 5.40002C3.21666 5.40002 3.38749 5.55419 3.38749 5.71252Z" fill="white"/>
<path opacity="0.7" d="M11.3834 10.3334C11.3834 10.4792 11.2584 10.6 11.1126 10.6C10.9376 10.6 10.7667 10.4417 10.7751 10.2792C10.7792 10.1334 10.8876 10.0209 11.0334 10.0209C11.2042 10.0209 11.3876 10.1834 11.3834 10.3334Z" fill="white"/>
<path d="M7.08338 4.83754C7.84172 4.83754 8.60005 4.83754 9.35838 4.83754C9.92505 4.83754 10.2417 5.15004 10.2417 5.71254C10.2417 7.23754 10.2417 8.76254 10.2417 10.2875C10.2417 10.8417 9.92505 11.1625 9.37505 11.1625C7.84588 11.1625 6.32088 11.1625 4.79172 11.1625C4.24588 11.1625 3.92505 10.8417 3.92505 10.3C3.92505 8.76254 3.92505 7.22921 3.92505 5.69171C3.92505 5.15004 4.24588 4.83337 4.79172 4.83337C5.55422 4.83337 6.31672 4.83754 7.08338 4.83754ZM6.77088 9.46671C6.87505 9.46671 6.97922 9.46671 7.08338 9.46671C7.82922 9.44587 8.42088 8.89171 8.50838 8.12921C8.58338 7.45421 8.11672 6.75837 7.42505 6.60004C7.10838 6.52504 6.76672 6.54587 6.43755 6.53337C6.22088 6.52504 6.12505 6.63337 6.12088 6.84587C6.11672 7.07504 6.11672 7.30421 6.12088 7.53337C6.12505 7.66254 6.07922 7.72504 5.94588 7.73337C5.75838 7.74587 5.65838 7.84587 5.65422 7.99587C5.65422 8.14171 5.75838 8.25004 5.94172 8.26254C6.08755 8.27087 6.12505 8.34171 6.12088 8.47504C6.11672 8.69171 6.11672 8.91254 6.12088 9.12921C6.12088 9.36671 6.21672 9.46254 6.45005 9.46671C6.55422 9.46671 6.66255 9.46671 6.77088 9.46671Z" fill="white"/>
<path d="M6.64588 8.60001C6.64588 8.55417 6.65004 8.50418 6.64588 8.45834C6.63754 8.32918 6.70004 8.28334 6.82921 8.25834C6.92504 8.23751 7.03338 8.17501 7.08338 8.09584C7.17504 7.95001 7.06254 7.77084 6.88338 7.73751C6.64588 7.69168 6.64588 7.69167 6.64588 7.45417C6.64588 7.05834 6.64588 7.05834 7.03754 7.06668C7.55838 7.07918 7.96254 7.47084 7.97921 7.97918C7.99588 8.47501 7.59171 8.90001 7.07921 8.93334C7.05004 8.93334 7.01671 8.93334 6.98754 8.93751C6.64588 8.93751 6.64588 8.93751 6.64588 8.60001Z" fill="white"/>
</svg>
