<svg width="42" height="27" viewBox="0 0 42 27" fill="none" xmlns="http://www.w3.org/2000/svg">
<path d="M40.6782 27.2216H0.930697C0.538725 27.2216 0.220886 26.9038 0.220886 26.5118V0.959811C0.220886 0.567839 0.538725 0.25 0.930697 0.25H40.6782C41.0702 0.25 41.3881 0.567839 41.3881 0.959811V26.5118C41.388 26.9038 41.0701 27.2216 40.6782 27.2216Z" fill="#F5F5F5"/>
<path d="M41.388 2.19251H0.220886V0.827487C0.220886 0.435515 0.538725 0.117676 0.930697 0.117676H40.6782C41.0702 0.117676 41.3881 0.435515 41.3881 0.827487L41.388 2.19251Z" fill="#FF4B55"/>
<path d="M41.388 8.4165H0.220886V10.4913H41.388V8.4165Z" fill="#FF4B55"/>
<path d="M41.388 4.26709H0.220886V6.34185H41.388V4.26709Z" fill="#FF4B55"/>
<path d="M41.388 14.6407H0.930697C0.538725 14.6407 0.220886 14.3229 0.220886 13.9309V12.5659H41.388V14.6407Z" fill="#FF4B55"/>
<path d="M41.388 20.8657H0.220886V22.9405H41.388V20.8657Z" fill="#FF4B55"/>
<path d="M40.6782 27.0894H0.930697C0.538725 27.0894 0.220886 26.7716 0.220886 26.3796V25.0146H41.388V26.3797C41.388 26.7717 41.0701 27.0894 40.6782 27.0894Z" fill="#FF4B55"/>
<path d="M41.388 16.7158H0.220886V18.7906H41.388V16.7158Z" fill="#FF4B55"/>
<path d="M18.6309 0.118652H0.886507C0.494536 0.118652 0.176697 0.436411 0.176697 0.828383V13.9319C0.176697 14.3239 0.494536 14.6417 0.886507 14.6417H18.631C19.0229 14.6417 19.3408 14.3239 19.3408 13.9319V0.828383C19.3407 0.436411 19.0229 0.118652 18.6309 0.118652Z" fill="#41479B"/>
<path d="M2.08148 1.4818L2.23859 1.95297L2.73525 1.95674C2.79958 1.95731 2.82619 2.03932 2.77449 2.07751L2.37496 2.3726L2.52483 2.8461C2.54429 2.90737 2.47442 2.95818 2.42208 2.92071L2.01805 2.63198L1.61401 2.92079C1.56167 2.95818 1.49196 2.90745 1.51126 2.84618L1.66113 2.37268L1.2616 2.07759C1.2099 2.03932 1.23651 1.95739 1.30084 1.95682L1.7975 1.95305L1.95461 1.48188C1.97487 1.42077 2.06106 1.42077 2.08148 1.4818Z" fill="#F5F5F5"/>
<path d="M2.08148 3.94658L2.23859 4.41775L2.73525 4.42153C2.79958 4.42209 2.82619 4.50411 2.77449 4.5423L2.37496 4.83738L2.52483 5.31089C2.54429 5.37215 2.47442 5.42297 2.42208 5.3855L2.01805 5.09677L1.61401 5.38558C1.56167 5.42297 1.49196 5.37224 1.51126 5.31097L1.66113 4.83746L1.2616 4.54238C1.2099 4.50411 1.23651 4.42217 1.30084 4.42161L1.7975 4.41783L1.95461 3.94666C1.97487 3.88563 2.06106 3.88563 2.08148 3.94658Z" fill="#F5F5F5"/>
<path d="M2.08148 6.41142L2.23859 6.88259L2.73525 6.88637C2.79958 6.88693 2.82619 6.96895 2.77449 7.00714L2.37496 7.30222L2.52483 7.77573C2.54429 7.837 2.47442 7.88781 2.42208 7.85034L2.01805 7.56161L1.61401 7.85042C1.56167 7.88781 1.49196 7.83708 1.51126 7.77581L1.66113 7.30231L1.2616 7.00722C1.2099 6.96895 1.23651 6.88702 1.30084 6.88645L1.7975 6.88267L1.95461 6.4115C1.97487 6.35048 2.06106 6.35048 2.08148 6.41142Z" fill="#F5F5F5"/>
<path d="M2.08148 8.87584L2.23859 9.34701L2.73525 9.35079C2.79958 9.35135 2.82619 9.43336 2.77449 9.47155L2.37496 9.76663L2.52483 10.2401C2.54429 10.3014 2.47442 10.3522 2.42208 10.3147L2.01805 10.026L1.61401 10.3148C1.56167 10.3522 1.49196 10.3015 1.51126 10.2402L1.66113 9.76672L1.2616 9.47163C1.2099 9.43336 1.23651 9.35143 1.30084 9.35087L1.7975 9.34709L1.95461 8.87592C1.97487 8.81481 2.06106 8.81481 2.08148 8.87584Z" fill="#F5F5F5"/>
<path d="M2.08148 11.3407L2.23859 11.8119L2.73525 11.8157C2.79958 11.8163 2.82619 11.8983 2.77449 11.9365L2.37496 12.2315L2.52483 12.705C2.54429 12.7663 2.47442 12.8171 2.42208 12.7797L2.01805 12.4909L1.61401 12.7797C1.56167 12.8171 1.49196 12.7664 1.51126 12.7051L1.66113 12.2316L1.2616 11.9365C1.2099 11.8983 1.23651 11.8163 1.30084 11.8158L1.7975 11.812L1.95461 11.3408C1.97487 11.2796 2.06106 11.2796 2.08148 11.3407Z" fill="#F5F5F5"/>
<path d="M3.99457 2.69024L4.15168 3.16141L4.64834 3.16519C4.71266 3.16575 4.73928 3.24777 4.68758 3.28596L4.28805 3.58104L4.43792 4.05454C4.45738 4.11581 4.38751 4.16663 4.33516 4.12916L3.93113 3.84035L3.5271 4.12916C3.47476 4.16655 3.40504 4.11581 3.42434 4.05454L3.57422 3.58104L3.17469 3.28596C3.12299 3.24769 3.1496 3.16575 3.21392 3.16519L3.71058 3.16141L3.86769 2.69024C3.88787 2.62929 3.97423 2.62929 3.99457 2.69024Z" fill="#F5F5F5"/>
<path d="M3.99457 5.15515L4.15168 5.62632L4.64834 5.6301C4.71266 5.63066 4.73928 5.71267 4.68758 5.75086L4.28805 6.04595L4.43792 6.51945C4.45738 6.58072 4.38751 6.63153 4.33516 6.59407L3.93113 6.30525L3.5271 6.59407C3.47476 6.63145 3.40504 6.5808 3.42434 6.51945L3.57422 6.04595L3.17469 5.75086C3.12299 5.71259 3.1496 5.63066 3.21392 5.6301L3.71058 5.62632L3.86769 5.15515C3.88787 5.09412 3.97423 5.09412 3.99457 5.15515Z" fill="#F5F5F5"/>
<path d="M3.99457 7.61999L4.15168 8.09116L4.64834 8.09494C4.71266 8.0955 4.73928 8.17751 4.68758 8.2157L4.28805 8.51079L4.43792 8.98429C4.45738 9.04556 4.38751 9.09637 4.33516 9.0589L3.93113 8.77009L3.5271 9.0589C3.47476 9.09629 3.40504 9.04556 3.42434 8.98429L3.57422 8.51079L3.17469 8.2157C3.12299 8.17743 3.1496 8.0955 3.21392 8.09494L3.71058 8.09116L3.86769 7.61999C3.88787 7.55896 3.97423 7.55896 3.99457 7.61999Z" fill="#F5F5F5"/>
<path d="M3.99457 10.0843L4.15168 10.5555L4.64834 10.5592C4.71266 10.5598 4.73928 10.6418 4.68758 10.68L4.28805 10.9751L4.43792 11.4486C4.45738 11.5099 4.38751 11.5607 4.33516 11.5232L3.93113 11.2344L3.5271 11.5232C3.47476 11.5606 3.40504 11.5099 3.42434 11.4486L3.57422 10.9751L3.17469 10.68C3.12299 10.6417 3.1496 10.5598 3.21392 10.5592L3.71058 10.5555L3.86769 10.0843C3.88787 10.0233 3.97423 10.0233 3.99457 10.0843Z" fill="#F5F5F5"/>
<path d="M5.9076 1.48181L6.06471 1.95298L6.56136 1.95675C6.62569 1.95732 6.6523 2.03933 6.6006 2.07752L6.20107 2.37261L6.35095 2.84611C6.3704 2.90738 6.30053 2.95819 6.24819 2.92072L5.84416 2.63191L5.44012 2.92072C5.38778 2.95811 5.31807 2.90738 5.33737 2.84611L5.48724 2.37261L5.08771 2.07752C5.03601 2.03925 5.06262 1.95732 5.12695 1.95675L5.62361 1.95298L5.78072 1.48181C5.80098 1.42078 5.88725 1.42078 5.9076 1.48181Z" fill="#F5F5F5"/>
<path d="M5.9076 3.94659L6.06471 4.41776L6.56136 4.42154C6.62569 4.4221 6.6523 4.50411 6.6006 4.54231L6.20107 4.83739L6.35095 5.31089C6.3704 5.37216 6.30053 5.42298 6.24819 5.38551L5.84416 5.0967L5.44012 5.38551C5.38778 5.4229 5.31807 5.37216 5.33737 5.31089L5.48724 4.83739L5.08771 4.54231C5.03601 4.50403 5.06262 4.4221 5.12695 4.42154L5.62361 4.41776L5.78072 3.94659C5.80098 3.88564 5.88725 3.88564 5.9076 3.94659Z" fill="#F5F5F5"/>
<path d="M5.9076 6.41094L6.06471 6.88211L6.56136 6.88589C6.62569 6.88645 6.6523 6.96847 6.6006 7.00666L6.20107 7.30174L6.35095 7.77524C6.3704 7.83651 6.30053 7.88733 6.24819 7.84986L5.84416 7.56105L5.44012 7.84986C5.38778 7.88725 5.31807 7.83651 5.33737 7.77524L5.48724 7.30174L5.08771 7.00666C5.03601 6.96839 5.06262 6.88645 5.12695 6.88589L5.62361 6.88211L5.78072 6.41094C5.80098 6.35 5.88725 6.35 5.9076 6.41094Z" fill="#F5F5F5"/>
<path d="M5.9076 8.87634L6.06471 9.3475L6.56136 9.35128C6.62569 9.35185 6.6523 9.43386 6.6006 9.47205L6.20107 9.76713L6.35095 10.2406C6.3704 10.3019 6.30053 10.3527 6.24819 10.3152L5.84416 10.0264L5.44012 10.3152C5.38778 10.3526 5.31807 10.3019 5.33737 10.2406L5.48724 9.76713L5.08771 9.47205C5.03601 9.43378 5.06262 9.35185 5.12695 9.35128L5.62361 9.3475L5.78072 8.87634C5.80098 8.81531 5.88725 8.81531 5.9076 8.87634Z" fill="#F5F5F5"/>
<path d="M5.9076 11.3408L6.06471 11.8119L6.56136 11.8157C6.62569 11.8163 6.6523 11.8983 6.6006 11.9365L6.20107 12.2316L6.35095 12.7051C6.3704 12.7663 6.30053 12.8171 6.24819 12.7797L5.84416 12.4909L5.44012 12.7797C5.38778 12.8171 5.31807 12.7663 5.33737 12.7051L5.48724 12.2316L5.08771 11.9365C5.03601 11.8982 5.06262 11.8163 5.12695 11.8157L5.62361 11.8119L5.78072 11.3408C5.80098 11.2796 5.88725 11.2796 5.9076 11.3408Z" fill="#F5F5F5"/>
<path d="M7.82074 2.69024L7.97785 3.16141L8.47451 3.16519C8.53883 3.16575 8.56545 3.24777 8.51375 3.28596L8.11422 3.58104L8.26409 4.05454C8.28355 4.11581 8.21368 4.16663 8.16134 4.12916L7.7573 3.84035L7.35327 4.12916C7.30093 4.16655 7.23122 4.11581 7.25051 4.05454L7.40039 3.58104L7.00086 3.28596C6.94916 3.24769 6.97577 3.16575 7.0401 3.16519L7.53675 3.16141L7.69386 2.69024C7.71405 2.62929 7.8004 2.62929 7.82074 2.69024Z" fill="#F5F5F5"/>
<path d="M7.82074 5.15515L7.97785 5.62632L8.47451 5.6301C8.53883 5.63066 8.56545 5.71267 8.51375 5.75086L8.11422 6.04595L8.26409 6.51945C8.28355 6.58072 8.21368 6.63153 8.16134 6.59407L7.7573 6.30525L7.35327 6.59407C7.30093 6.63145 7.23122 6.5808 7.25051 6.51945L7.40039 6.04595L7.00086 5.75086C6.94916 5.71259 6.97577 5.63066 7.0401 5.6301L7.53675 5.62632L7.69386 5.15515C7.71405 5.09412 7.8004 5.09412 7.82074 5.15515Z" fill="#F5F5F5"/>
<path d="M7.82074 7.61999L7.97785 8.09116L8.47451 8.09494C8.53883 8.0955 8.56545 8.17751 8.51375 8.2157L8.11422 8.51079L8.26409 8.98429C8.28355 9.04556 8.21368 9.09637 8.16134 9.0589L7.7573 8.77009L7.35327 9.0589C7.30093 9.09629 7.23122 9.04556 7.25051 8.98429L7.40039 8.51079L7.00086 8.2157C6.94916 8.17743 6.97577 8.0955 7.0401 8.09494L7.53675 8.09116L7.69386 7.61999C7.71405 7.55896 7.8004 7.55896 7.82074 7.61999Z" fill="#F5F5F5"/>
<path d="M7.82074 10.0843L7.97785 10.5555L8.47451 10.5592C8.53883 10.5598 8.56545 10.6418 8.51375 10.68L8.11422 10.9751L8.26409 11.4486C8.28355 11.5099 8.21368 11.5607 8.16134 11.5232L7.7573 11.2344L7.35327 11.5232C7.30093 11.5606 7.23122 11.5099 7.25051 11.4486L7.40039 10.9751L7.00086 10.68C6.94916 10.6417 6.97577 10.5598 7.0401 10.5592L7.53675 10.5555L7.69386 10.0843C7.71405 10.0233 7.8004 10.0233 7.82074 10.0843Z" fill="#F5F5F5"/>
<path d="M9.73385 1.48181L9.89096 1.95298L10.3876 1.95675C10.4519 1.95732 10.4786 2.03933 10.4269 2.07752L10.0273 2.37261L10.1772 2.84611C10.1967 2.90738 10.1268 2.95819 10.0744 2.92072L9.67033 2.63191L9.2663 2.92072C9.21395 2.95811 9.14424 2.90738 9.16354 2.84611L9.31341 2.37261L8.91388 2.07752C8.86218 2.03925 8.8888 1.95732 8.95312 1.95675L9.44978 1.95298L9.60689 1.48181C9.62723 1.42078 9.71351 1.42078 9.73385 1.48181Z" fill="#F5F5F5"/>
<path d="M9.73385 3.94659L9.89096 4.41776L10.3876 4.42154C10.4519 4.4221 10.4786 4.50411 10.4269 4.54231L10.0273 4.83739L10.1772 5.31089C10.1967 5.37216 10.1268 5.42298 10.0744 5.38551L9.67033 5.0967L9.2663 5.38551C9.21395 5.4229 9.14424 5.37216 9.16354 5.31089L9.31341 4.83739L8.91388 4.54231C8.86218 4.50403 8.8888 4.4221 8.95312 4.42154L9.44978 4.41776L9.60689 3.94659C9.62723 3.88564 9.71351 3.88564 9.73385 3.94659Z" fill="#F5F5F5"/>
<path d="M9.73385 6.41094L9.89096 6.88211L10.3876 6.88589C10.4519 6.88645 10.4786 6.96847 10.4269 7.00666L10.0273 7.30174L10.1772 7.77524C10.1967 7.83651 10.1268 7.88733 10.0744 7.84986L9.67033 7.56105L9.2663 7.84986C9.21395 7.88725 9.14424 7.83651 9.16354 7.77524L9.31341 7.30174L8.91388 7.00666C8.86218 6.96839 8.8888 6.88645 8.95312 6.88589L9.44978 6.88211L9.60689 6.41094C9.62723 6.35 9.71351 6.35 9.73385 6.41094Z" fill="#F5F5F5"/>
<path d="M9.73385 8.87634L9.89096 9.3475L10.3876 9.35128C10.4519 9.35185 10.4786 9.43386 10.4269 9.47205L10.0273 9.76713L10.1772 10.2406C10.1967 10.3019 10.1268 10.3527 10.0744 10.3152L9.67033 10.0264L9.2663 10.3152C9.21395 10.3526 9.14424 10.3019 9.16354 10.2406L9.31341 9.76713L8.91388 9.47205C8.86218 9.43378 8.8888 9.35185 8.95312 9.35128L9.44978 9.3475L9.60689 8.87634C9.62723 8.81531 9.71351 8.81531 9.73385 8.87634Z" fill="#F5F5F5"/>
<path d="M9.73385 11.3408L9.89096 11.8119L10.3876 11.8157C10.4519 11.8163 10.4786 11.8983 10.4269 11.9365L10.0273 12.2316L10.1772 12.7051C10.1967 12.7663 10.1268 12.8171 10.0744 12.7797L9.67033 12.4909L9.2663 12.7797C9.21395 12.8171 9.14424 12.7663 9.16354 12.7051L9.31341 12.2316L8.91388 11.9365C8.86218 11.8982 8.8888 11.8163 8.95312 11.8157L9.44978 11.8119L9.60689 11.3408C9.62723 11.2796 9.71351 11.2796 9.73385 11.3408Z" fill="#F5F5F5"/>
<path d="M11.6469 2.69024L11.804 3.16141L12.3007 3.16519C12.365 3.16575 12.3916 3.24777 12.3399 3.28596L11.9404 3.58104L12.0903 4.05454C12.1097 4.11581 12.0398 4.16663 11.9875 4.12916L11.5835 3.84035L11.1794 4.12916C11.1271 4.16655 11.0574 4.11581 11.0767 4.05454L11.2266 3.58104L10.827 3.28596C10.7753 3.24769 10.8019 3.16575 10.8663 3.16519L11.3629 3.16141L11.52 2.69024C11.5404 2.62929 11.6266 2.62929 11.6469 2.69024Z" fill="#F5F5F5"/>
<path d="M11.6469 5.15515L11.804 5.62632L12.3007 5.6301C12.365 5.63066 12.3916 5.71267 12.3399 5.75086L11.9404 6.04595L12.0903 6.51945C12.1097 6.58072 12.0398 6.63153 11.9875 6.59407L11.5835 6.30525L11.1794 6.59407C11.1271 6.63145 11.0574 6.5808 11.0767 6.51945L11.2266 6.04595L10.827 5.75086C10.7753 5.71259 10.8019 5.63066 10.8663 5.6301L11.3629 5.62632L11.52 5.15515C11.5404 5.09412 11.6266 5.09412 11.6469 5.15515Z" fill="#F5F5F5"/>
<path d="M11.6469 7.61999L11.804 8.09116L12.3007 8.09494C12.365 8.0955 12.3916 8.17751 12.3399 8.2157L11.9404 8.51079L12.0903 8.98429C12.1097 9.04556 12.0398 9.09637 11.9875 9.0589L11.5835 8.77009L11.1794 9.0589C11.1271 9.09629 11.0574 9.04556 11.0767 8.98429L11.2266 8.51079L10.827 8.2157C10.7753 8.17743 10.8019 8.0955 10.8663 8.09494L11.3629 8.09116L11.52 7.61999C11.5404 7.55896 11.6266 7.55896 11.6469 7.61999Z" fill="#F5F5F5"/>
<path d="M11.6469 10.0843L11.804 10.5555L12.3007 10.5592C12.365 10.5598 12.3916 10.6418 12.3399 10.68L11.9404 10.9751L12.0903 11.4486C12.1097 11.5099 12.0398 11.5607 11.9875 11.5232L11.5835 11.2344L11.1794 11.5232C11.1271 11.5606 11.0574 11.5099 11.0767 11.4486L11.2266 10.9751L10.827 10.68C10.7753 10.6417 10.8019 10.5598 10.8663 10.5592L11.3629 10.5555L11.52 10.0843C11.5404 10.0233 11.6266 10.0233 11.6469 10.0843Z" fill="#F5F5F5"/>
<path d="M13.56 1.48181L13.7171 1.95298L14.2138 1.95675C14.2781 1.95732 14.3047 2.03933 14.253 2.07752L13.8535 2.37261L14.0034 2.84611C14.0228 2.90738 13.9529 2.95819 13.9006 2.92072L13.4966 2.63191L13.0925 2.92072C13.0402 2.95811 12.9705 2.90738 12.9898 2.84611L13.1396 2.37261L12.7401 2.07752C12.6884 2.03925 12.715 1.95732 12.7794 1.95675L13.276 1.95298L13.4331 1.48181C13.4533 1.42078 13.5397 1.42078 13.56 1.48181Z" fill="#F5F5F5"/>
<path d="M13.56 3.94659L13.7171 4.41776L14.2138 4.42154C14.2781 4.4221 14.3047 4.50411 14.253 4.54231L13.8535 4.83739L14.0034 5.31089C14.0228 5.37216 13.9529 5.42298 13.9006 5.38551L13.4966 5.0967L13.0925 5.38551C13.0402 5.4229 12.9705 5.37216 12.9898 5.31089L13.1396 4.83739L12.7401 4.54231C12.6884 4.50403 12.715 4.4221 12.7794 4.42154L13.276 4.41776L13.4331 3.94659C13.4533 3.88564 13.5397 3.88564 13.56 3.94659Z" fill="#F5F5F5"/>
<path d="M13.56 6.41094L13.7171 6.88211L14.2138 6.88589C14.2781 6.88645 14.3047 6.96847 14.253 7.00666L13.8535 7.30174L14.0034 7.77524C14.0228 7.83651 13.9529 7.88733 13.9006 7.84986L13.4966 7.56105L13.0925 7.84986C13.0402 7.88725 12.9705 7.83651 12.9898 7.77524L13.1396 7.30174L12.7401 7.00666C12.6884 6.96839 12.715 6.88645 12.7794 6.88589L13.276 6.88211L13.4331 6.41094C13.4533 6.35 13.5397 6.35 13.56 6.41094Z" fill="#F5F5F5"/>
<path d="M13.56 8.87634L13.7171 9.3475L14.2138 9.35128C14.2781 9.35185 14.3047 9.43386 14.253 9.47205L13.8535 9.76713L14.0034 10.2406C14.0228 10.3019 13.9529 10.3527 13.9006 10.3152L13.4966 10.0264L13.0925 10.3152C13.0402 10.3526 12.9705 10.3019 12.9898 10.2406L13.1396 9.76713L12.7401 9.47205C12.6884 9.43378 12.715 9.35185 12.7794 9.35128L13.276 9.3475L13.4331 8.87634C13.4533 8.81531 13.5397 8.81531 13.56 8.87634Z" fill="#F5F5F5"/>
<path d="M13.56 11.3408L13.7171 11.8119L14.2138 11.8157C14.2781 11.8163 14.3047 11.8983 14.253 11.9365L13.8535 12.2316L14.0034 12.7051C14.0228 12.7663 13.9529 12.8171 13.9006 12.7797L13.4966 12.4909L13.0925 12.7797C13.0402 12.8171 12.9705 12.7663 12.9898 12.7051L13.1396 12.2316L12.7401 11.9365C12.6884 11.8982 12.715 11.8163 12.7794 11.8157L13.276 11.8119L13.4331 11.3408C13.4533 11.2796 13.5397 11.2796 13.56 11.3408Z" fill="#F5F5F5"/>
<path d="M15.4731 2.69024L15.6302 3.16141L16.1268 3.16519C16.1912 3.16575 16.2178 3.24777 16.1661 3.28596L15.7666 3.58104L15.9164 4.05454C15.9359 4.11581 15.866 4.16663 15.8137 4.12916L15.4096 3.84035L15.0056 4.12916C14.9533 4.16655 14.8836 4.11581 14.9029 4.05454L15.0527 3.58104L14.6532 3.28596C14.6015 3.24769 14.6281 3.16575 14.6924 3.16519L15.1891 3.16141L15.3462 2.69024C15.3665 2.62929 15.4528 2.62929 15.4731 2.69024Z" fill="#F5F5F5"/>
<path d="M15.4731 5.15515L15.6302 5.62632L16.1268 5.6301C16.1912 5.63066 16.2178 5.71267 16.1661 5.75086L15.7666 6.04595L15.9164 6.51945C15.9359 6.58072 15.866 6.63153 15.8137 6.59407L15.4096 6.30525L15.0056 6.59407C14.9533 6.63145 14.8836 6.5808 14.9029 6.51945L15.0527 6.04595L14.6532 5.75086C14.6015 5.71259 14.6281 5.63066 14.6924 5.6301L15.1891 5.62632L15.3462 5.15515C15.3665 5.09412 15.4528 5.09412 15.4731 5.15515Z" fill="#F5F5F5"/>
<path d="M15.4731 7.61999L15.6302 8.09116L16.1268 8.09494C16.1912 8.0955 16.2178 8.17751 16.1661 8.2157L15.7666 8.51079L15.9164 8.98429C15.9359 9.04556 15.866 9.09637 15.8137 9.0589L15.4096 8.77009L15.0056 9.0589C14.9533 9.09629 14.8836 9.04556 14.9029 8.98429L15.0527 8.51079L14.6532 8.2157C14.6015 8.17743 14.6281 8.0955 14.6924 8.09494L15.1891 8.09116L15.3462 7.61999C15.3665 7.55896 15.4528 7.55896 15.4731 7.61999Z" fill="#F5F5F5"/>
<path d="M15.4731 10.0843L15.6302 10.5555L16.1268 10.5592C16.1912 10.5598 16.2178 10.6418 16.1661 10.68L15.7666 10.9751L15.9164 11.4486C15.9359 11.5099 15.866 11.5607 15.8137 11.5232L15.4096 11.2344L15.0056 11.5232C14.9533 11.5606 14.8836 11.5099 14.9029 11.4486L15.0527 10.9751L14.6532 10.68C14.6015 10.6417 14.6281 10.5598 14.6924 10.5592L15.1891 10.5555L15.3462 10.0843C15.3665 10.0233 15.4528 10.0233 15.4731 10.0843Z" fill="#F5F5F5"/>
<path d="M17.3862 1.48181L17.5433 1.95298L18.04 1.95675C18.1043 1.95732 18.1309 2.03933 18.0792 2.07752L17.6797 2.37261L17.8296 2.84611C17.849 2.90738 17.7792 2.95819 17.7268 2.92072L17.3228 2.63191L16.9188 2.92072C16.8664 2.95811 16.7967 2.90738 16.816 2.84611L16.9659 2.37261L16.5663 2.07752C16.5146 2.03925 16.5413 1.95732 16.6056 1.95675L17.1022 1.95298L17.2594 1.48181C17.2796 1.42078 17.3658 1.42078 17.3862 1.48181Z" fill="#F5F5F5"/>
<path d="M17.3862 3.94659L17.5433 4.41776L18.04 4.42154C18.1043 4.4221 18.1309 4.50411 18.0792 4.54231L17.6797 4.83739L17.8296 5.31089C17.849 5.37216 17.7792 5.42298 17.7268 5.38551L17.3228 5.0967L16.9188 5.38551C16.8664 5.4229 16.7967 5.37216 16.816 5.31089L16.9659 4.83739L16.5663 4.54231C16.5146 4.50403 16.5413 4.4221 16.6056 4.42154L17.1022 4.41776L17.2594 3.94659C17.2796 3.88564 17.3658 3.88564 17.3862 3.94659Z" fill="#F5F5F5"/>
<path d="M17.3862 6.41094L17.5433 6.88211L18.04 6.88589C18.1043 6.88645 18.1309 6.96847 18.0792 7.00666L17.6797 7.30174L17.8296 7.77524C17.849 7.83651 17.7792 7.88733 17.7268 7.84986L17.3228 7.56105L16.9188 7.84986C16.8664 7.88725 16.7967 7.83651 16.816 7.77524L16.9659 7.30174L16.5663 7.00666C16.5146 6.96839 16.5413 6.88645 16.6056 6.88589L17.1022 6.88211L17.2594 6.41094C17.2796 6.35 17.3658 6.35 17.3862 6.41094Z" fill="#F5F5F5"/>
<path d="M17.3862 8.87634L17.5433 9.3475L18.04 9.35128C18.1043 9.35185 18.1309 9.43386 18.0792 9.47205L17.6797 9.76713L17.8296 10.2406C17.849 10.3019 17.7792 10.3527 17.7268 10.3152L17.3228 10.0264L16.9188 10.3152C16.8664 10.3526 16.7967 10.3019 16.816 10.2406L16.9659 9.76713L16.5663 9.47205C16.5146 9.43378 16.5413 9.35185 16.6056 9.35128L17.1022 9.3475L17.2594 8.87634C17.2796 8.81531 17.3658 8.81531 17.3862 8.87634Z" fill="#F5F5F5"/>
<path d="M17.3862 11.3408L17.5433 11.8119L18.04 11.8157C18.1043 11.8163 18.1309 11.8983 18.0792 11.9365L17.6797 12.2316L17.8296 12.7051C17.849 12.7663 17.7792 12.8171 17.7268 12.7797L17.3228 12.4909L16.9188 12.7797C16.8664 12.8171 16.7967 12.7663 16.816 12.7051L16.9659 12.2316L16.5663 11.9365C16.5146 11.8982 16.5413 11.8163 16.6056 11.8157L17.1022 11.8119L17.2594 11.3408C17.2796 11.2796 17.3658 11.2796 17.3862 11.3408Z" fill="#F5F5F5"/>
</svg>
