<svg width="110" height="40" viewBox="0 0 110 40" fill="none" xmlns="http://www.w3.org/2000/svg">
<g clip-path="url(#clip0_94_6497)">
<path fill-rule="evenodd" clip-rule="evenodd" d="M38.5436 14.8387L45.9574 26.6667L39.454 27.957L40.7547 31.3979L29.4821 35.6989L26.4472 40H22.9787H19.5102L16.4753 35.6989L5.20273 31.3979L6.50341 27.957L0 26.6667L7.41389 14.8387L4.33561 0L18.2096 6.88172H22.9787H27.7479L41.6218 0L38.5436 14.8387ZM12.1397 12.043L15.1746 9.46237L7.80409 4.30108L12.1397 12.043ZM11.5327 19.3548C16.6921 18.6237 18.1662 24.5161 18.1662 24.5161C12.6166 24.8602 11.5327 19.3548 11.5327 19.3548ZM36.289 29.4194L36.2023 29.1613L34.7716 25.3763L38.8037 24.5591L40.4079 24.2581L35.6387 16.6452L34.9016 15.4839L35.1618 14.1505L36.8093 6.23656L36.2023 6.53763L25.5801 19.3548L27.7479 19.7849L22.5452 25.8065L21.678 30.5376L21.7648 31.1398H22.9787H24.9297L25.5801 32.086L24.1493 33.9785H22.9787H22.155L22.5018 36.5591H22.9787H24.6263L26.6206 33.7634L27.2276 32.9032L28.2248 32.5161L36.289 29.4194ZM27.7913 24.5162C33.3409 24.8603 34.4248 19.3549 34.4248 19.3549C29.2654 18.6237 27.7913 24.5162 27.7913 24.5162Z" fill="url(#paint0_linear_94_6497)"/>
</g>
<path d="M59.4669 16.1702H56.0904L60.476 3.17212H64.6585L69.0441 16.1702H65.6676L62.6149 6.44702H62.5133L59.4669 16.1702ZM59.0163 11.0547H66.0738V13.4411H59.0163V11.0547Z" fill="white"/>
<path d="M73.5471 3.17212V16.1702H70.4435V3.17212H73.5471Z" fill="white"/>
<path d="M75.5225 19.8259V6.42164H78.5943V8.09082H78.6895C78.8164 7.79464 78.9963 7.50904 79.229 7.23402C79.4659 6.95899 79.7663 6.73474 80.1302 6.56126C80.4983 6.38356 80.9384 6.2947 81.4503 6.2947C82.1273 6.2947 82.7599 6.47241 83.348 6.82782C83.9403 7.18324 84.4185 7.73117 84.7823 8.47162C85.1462 9.21207 85.3282 10.1556 85.3282 11.3023C85.3282 12.4066 85.1526 13.3311 84.8014 14.0758C84.4544 14.8205 83.9848 15.379 83.3924 15.7513C82.8043 16.1236 82.1506 16.3098 81.4313 16.3098C80.9405 16.3098 80.5152 16.2294 80.1556 16.0686C79.7959 15.9079 79.4934 15.6963 79.248 15.434C79.0068 15.1716 78.8207 14.8903 78.6895 14.5899H78.626V19.8259H75.5225ZM78.5626 11.2959C78.5626 11.8206 78.6324 12.2775 78.772 12.6668C78.9159 13.0561 79.1211 13.3586 79.3876 13.5744C79.6584 13.7859 79.9821 13.8917 80.3587 13.8917C80.7395 13.8917 81.0632 13.7859 81.3297 13.5744C81.5963 13.3586 81.7973 13.0561 81.9327 12.6668C82.0723 12.2775 82.1421 11.8206 82.1421 11.2959C82.1421 10.7712 82.0723 10.3164 81.9327 9.93137C81.7973 9.54633 81.5963 9.24804 81.3297 9.03648C81.0674 8.82492 80.7437 8.71915 80.3587 8.71915C79.9779 8.71915 79.6542 8.82281 79.3876 9.03013C79.1211 9.23746 78.9159 9.53364 78.772 9.91867C78.6324 10.3037 78.5626 10.7628 78.5626 11.2959Z" fill="white"/>
<path d="M90.058 10.6105V16.1702H86.9545V3.17212H89.9565V8.21141H90.0644C90.2844 7.61059 90.6441 7.14093 91.1433 6.80244C91.6468 6.46395 92.2625 6.2947 92.9902 6.2947C93.6757 6.2947 94.2723 6.44702 94.78 6.75167C95.2877 7.05208 95.6812 7.47731 95.9605 8.02735C96.244 8.5774 96.3836 9.22054 96.3794 9.95675V16.1702H93.2758V10.566C93.2801 10.0245 93.1447 9.60134 92.8696 9.2967C92.5946 8.99205 92.2075 8.83973 91.7082 8.83973C91.3824 8.83973 91.0947 8.91166 90.845 9.05552C90.5996 9.19515 90.4071 9.39613 90.2675 9.65846C90.1321 9.92079 90.0623 10.2381 90.058 10.6105Z" fill="white"/>
<path d="M101.065 16.3352C100.443 16.3352 99.8907 16.2315 99.4083 16.0242C98.9302 15.8127 98.5515 15.4953 98.2723 15.0722C97.9973 14.6449 97.8597 14.1096 97.8597 13.4665C97.8597 12.9249 97.9549 12.4679 98.1453 12.0956C98.3357 11.7233 98.5981 11.4207 98.9323 11.188C99.2666 10.9553 99.6516 10.7797 100.087 10.6612C100.523 10.5385 100.989 10.456 101.484 10.4137C102.038 10.3629 102.484 10.3101 102.823 10.2551C103.161 10.1958 103.407 10.1133 103.559 10.0075C103.716 9.89752 103.794 9.74308 103.794 9.54422V9.51248C103.794 9.18669 103.682 8.93493 103.458 8.75723C103.233 8.57952 102.931 8.49066 102.55 8.49066C102.14 8.49066 101.81 8.57952 101.56 8.75723C101.31 8.93493 101.152 9.18034 101.084 9.49344L98.2215 9.3919C98.3061 8.79954 98.524 8.27064 98.8752 7.80522C99.2306 7.33556 99.7172 6.96745 100.335 6.70089C100.957 6.4301 101.704 6.2947 102.575 6.2947C103.197 6.2947 103.771 6.36875 104.295 6.51684C104.82 6.6607 105.277 6.87225 105.666 7.15151C106.055 7.42653 106.356 7.76502 106.567 8.16698C106.783 8.56894 106.891 9.02802 106.891 9.54422V16.1702H103.972V14.812H103.895C103.722 15.142 103.5 15.4213 103.229 15.6498C102.963 15.8782 102.647 16.0496 102.283 16.1638C101.924 16.2781 101.518 16.3352 101.065 16.3352ZM102.023 14.3043C102.357 14.3043 102.658 14.2366 102.924 14.1012C103.195 13.9658 103.411 13.7796 103.572 13.5426C103.733 13.3015 103.813 13.0222 103.813 12.7049V11.7783C103.724 11.8248 103.616 11.8671 103.489 11.9052C103.367 11.9433 103.231 11.9792 103.083 12.0131C102.935 12.0469 102.783 12.0766 102.626 12.1019C102.47 12.1273 102.319 12.1506 102.176 12.1718C101.884 12.2183 101.634 12.2902 101.427 12.3875C101.223 12.4849 101.067 12.6118 100.957 12.7683C100.851 12.9207 100.798 13.1026 100.798 13.3142C100.798 13.6357 100.913 13.8811 101.141 14.0504C101.374 14.2196 101.668 14.3043 102.023 14.3043Z" fill="white"/>
<path d="M65.4835 24.2102V25.7115H61.5873V36.5957H59.8537V25.7115H55.9575V24.2102H65.4835Z" fill="white"/>
<path d="M69.9228 27.1055C70.0658 27.1055 70.2266 27.1174 70.4054 27.1412C70.596 27.1532 70.7807 27.177 70.9594 27.2127C71.1381 27.2366 71.299 27.2664 71.4419 27.3021C71.5968 27.3259 71.71 27.3498 71.7815 27.3736L71.4956 28.8212C71.3645 28.7736 71.1441 28.72 70.8343 28.6604C70.5364 28.5889 70.1492 28.5532 69.6726 28.5532C69.3628 28.5532 69.053 28.5889 68.7432 28.6604C68.4454 28.72 68.2488 28.7617 68.1534 28.7855V36.5957H66.4913V27.6953C66.8845 27.5523 67.373 27.4212 67.9568 27.3021C68.5407 27.171 69.196 27.1055 69.9228 27.1055Z" fill="white"/>
<path d="M76.531 35.3983C76.9241 35.3983 77.2697 35.3923 77.5676 35.3804C77.8773 35.3566 78.1335 35.3208 78.3361 35.2732V32.503C78.2169 32.4434 78.0203 32.3957 77.7463 32.36C77.4841 32.3123 77.1624 32.2885 76.7812 32.2885C76.531 32.2885 76.2629 32.3064 75.9769 32.3421C75.7029 32.3778 75.4467 32.4553 75.2084 32.5744C74.982 32.6817 74.7914 32.8366 74.6365 33.0391C74.4816 33.2298 74.4042 33.4859 74.4042 33.8076C74.4042 34.4034 74.5948 34.8204 74.9761 35.0587C75.3573 35.2851 75.8756 35.3983 76.531 35.3983ZM76.388 27.0698C77.0552 27.0698 77.6152 27.1591 78.068 27.3378C78.5327 27.5047 78.902 27.7489 79.1761 28.0706C79.462 28.3804 79.6646 28.7557 79.7837 29.1966C79.9029 29.6255 79.9624 30.1021 79.9624 30.6264V36.4349C79.8195 36.4587 79.6169 36.4944 79.3548 36.5421C79.1046 36.5778 78.8186 36.6136 78.4969 36.6493C78.1752 36.6851 77.8237 36.7149 77.4424 36.7387C77.0731 36.7744 76.7037 36.7923 76.3344 36.7923C75.8101 36.7923 75.3276 36.7387 74.8867 36.6315C74.4459 36.5242 74.0646 36.3574 73.7429 36.131C73.4212 35.8927 73.171 35.583 72.9922 35.2017C72.8135 34.8204 72.7241 34.3617 72.7241 33.8255C72.7241 33.3132 72.8254 32.8723 73.028 32.503C73.2424 32.1336 73.5284 31.8357 73.8859 31.6093C74.2433 31.383 74.6603 31.2161 75.1369 31.1089C75.6135 31.0017 76.1139 30.9481 76.6382 30.9481C76.805 30.9481 76.9778 30.96 77.1565 30.9838C77.3352 30.9957 77.502 31.0195 77.6569 31.0553C77.8237 31.0791 77.9667 31.103 78.0859 31.1268C78.205 31.1506 78.2884 31.1685 78.3361 31.1804V30.7157C78.3361 30.4417 78.3063 30.1736 78.2467 29.9115C78.1871 29.6374 78.0799 29.3991 77.925 29.1966C77.7701 28.9821 77.5556 28.8153 77.2816 28.6961C77.0195 28.5651 76.6739 28.4995 76.245 28.4995C75.6969 28.4995 75.2144 28.5412 74.7973 28.6247C74.3922 28.6961 74.0884 28.7736 73.8859 28.857L73.6893 27.4808C73.9037 27.3855 74.2612 27.2961 74.7616 27.2127C75.262 27.1174 75.8041 27.0698 76.388 27.0698Z" fill="white"/>
<path d="M88.7281 29.2681C88.5256 29.1012 88.2337 28.9404 87.8524 28.7855C87.4711 28.6306 87.0541 28.5532 86.6013 28.5532C86.1247 28.5532 85.7137 28.6425 85.3681 28.8212C85.0345 28.9881 84.7605 29.2264 84.546 29.5361C84.3315 29.834 84.1766 30.1915 84.0813 30.6085C83.986 31.0255 83.9383 31.4723 83.9383 31.9489C83.9383 33.0332 84.2064 33.8732 84.7426 34.4689C85.2788 35.0527 85.9937 35.3447 86.8873 35.3447C87.34 35.3447 87.7154 35.3268 88.0132 35.291C88.323 35.2434 88.5613 35.1957 88.7281 35.1481V29.2681ZM88.7281 23.0127L90.3903 22.7268V36.3276C90.009 36.4349 89.5205 36.5421 88.9247 36.6493C88.329 36.7566 87.6439 36.8102 86.8694 36.8102C86.1545 36.8102 85.5111 36.697 84.9392 36.4706C84.3673 36.2442 83.8788 35.9225 83.4737 35.5055C83.0686 35.0885 82.7528 34.5821 82.5264 33.9864C82.312 33.3787 82.2047 32.6995 82.2047 31.9489C82.2047 31.234 82.2941 30.5787 82.4728 29.983C82.6635 29.3872 82.9375 28.8749 83.2949 28.4459C83.6524 28.017 84.0873 27.6834 84.5996 27.4451C85.1239 27.2068 85.7196 27.0876 86.3869 27.0876C86.923 27.0876 87.3937 27.1591 87.7988 27.3021C88.2158 27.4451 88.5256 27.5821 88.7281 27.7132V23.0127Z" fill="white"/>
<path d="M92.7292 31.9668C92.7292 31.1447 92.8483 30.4298 93.0866 29.8221C93.3249 29.2025 93.6407 28.6902 94.0338 28.2851C94.427 27.88 94.8798 27.5761 95.3921 27.3736C95.9045 27.171 96.4287 27.0698 96.9649 27.0698C98.216 27.0698 99.1751 27.463 99.8424 28.2493C100.51 29.0238 100.843 30.2093 100.843 31.8059C100.843 31.8774 100.843 31.9727 100.843 32.0919C100.843 32.1991 100.837 32.3004 100.825 32.3957H94.4628C94.5343 33.3608 94.8143 34.0936 95.3028 34.594C95.7913 35.0944 96.5538 35.3447 97.5904 35.3447C98.1743 35.3447 98.6628 35.297 99.056 35.2017C99.4611 35.0944 99.7649 34.9932 99.9675 34.8978L100.2 36.2919C99.9972 36.3991 99.6398 36.5123 99.1275 36.6315C98.627 36.7506 98.0551 36.8102 97.4117 36.8102C96.6015 36.8102 95.8985 36.691 95.3028 36.4527C94.719 36.2025 94.2364 35.8629 93.8551 35.434C93.4738 35.0051 93.1879 34.4987 92.9972 33.9149C92.8185 33.3191 92.7292 32.6698 92.7292 31.9668ZM99.1096 31.0553C99.1215 30.3047 98.9309 29.691 98.5377 29.2144C98.1564 28.7259 97.6262 28.4817 96.947 28.4817C96.5658 28.4817 96.2262 28.5591 95.9283 28.714C95.6424 28.857 95.3981 29.0476 95.1955 29.2859C94.993 29.5242 94.8321 29.7983 94.713 30.1081C94.6058 30.4178 94.5343 30.7336 94.4985 31.0553H99.1096Z" fill="white"/>
<path d="M105.393 35.3983C106.073 35.3983 106.573 35.3089 106.895 35.1302C107.228 34.9515 107.395 34.6655 107.395 34.2723C107.395 33.8672 107.234 33.5455 106.913 33.3072C106.591 33.0689 106.061 32.8008 105.322 32.503C104.964 32.36 104.619 32.217 104.285 32.074C103.964 31.9191 103.684 31.7404 103.445 31.5378C103.207 31.3353 103.016 31.091 102.873 30.8051C102.73 30.5191 102.659 30.1676 102.659 29.7506C102.659 28.9285 102.963 28.2791 103.57 27.8025C104.178 27.314 105.006 27.0698 106.055 27.0698C106.317 27.0698 106.579 27.0876 106.841 27.1234C107.103 27.1472 107.347 27.183 107.574 27.2306C107.8 27.2664 107.997 27.3081 108.164 27.3557C108.342 27.4034 108.479 27.4451 108.575 27.4808L108.271 28.9106C108.092 28.8153 107.812 28.72 107.431 28.6247C107.05 28.5174 106.591 28.4638 106.055 28.4638C105.59 28.4638 105.185 28.5591 104.839 28.7498C104.494 28.9285 104.321 29.2144 104.321 29.6076C104.321 29.8102 104.357 29.9889 104.428 30.1438C104.512 30.2987 104.631 30.4417 104.786 30.5727C104.953 30.6919 105.155 30.8051 105.393 30.9123C105.632 31.0195 105.918 31.1327 106.251 31.2519C106.692 31.4187 107.085 31.5855 107.431 31.7523C107.776 31.9072 108.068 32.0919 108.307 32.3064C108.557 32.5208 108.747 32.783 108.879 33.0927C109.01 33.3906 109.075 33.76 109.075 34.2008C109.075 35.0587 108.753 35.7081 108.11 36.1489C107.479 36.5898 106.573 36.8102 105.393 36.8102C104.571 36.8102 103.928 36.7387 103.463 36.5957C102.998 36.4647 102.683 36.3634 102.516 36.2919L102.82 34.8621C103.01 34.9336 103.314 35.0408 103.731 35.1838C104.148 35.3268 104.702 35.3983 105.393 35.3983Z" fill="white"/>
<defs>
<linearGradient id="paint0_linear_94_6497" x1="12.5984" y1="-1.30124" x2="30.2612" y2="38.3417" gradientUnits="userSpaceOnUse">
<stop stop-color="#F65D80"/>
<stop offset="0.0001" stop-color="#F65D80"/>
<stop offset="1" stop-color="#6E80F8"/>
</linearGradient>
<clipPath id="clip0_94_6497">
<rect width="45.9574" height="40" fill="white"/>
</clipPath>
</defs>
</svg>
