<svg width="32" height="32" viewBox="0 0 32 32" fill="none" xmlns="http://www.w3.org/2000/svg">
<path d="M0 8C0 3.58172 3.58172 0 8 0H24C28.4183 0 32 3.58172 32 8V24C32 28.4183 28.4183 32 24 32H8C3.58172 32 0 28.4183 0 24V8Z" fill="#F7931B"/>
<path d="M24.4593 20.0889C24.0834 17.9176 22.0783 16.5625 22.0783 16.5625C22.0783 16.5625 25.2457 15.8789 25.3866 12.9092C25.4834 10.9733 24.3175 8.68872 21.2413 7.81527L21.953 5.15897L19.2025 4.42198L18.4908 7.07828L16.4889 6.54188L17.2007 3.88558L14.4526 3.14924L13.7408 5.80554L10.2901 4.88091L9.61844 7.38748L11.2122 7.81453C11.2978 7.83748 11.3781 7.87706 11.4484 7.93102C11.5188 7.98498 11.5778 8.05227 11.6221 8.12903C11.6664 8.2058 11.6952 8.29054 11.7067 8.37843C11.7183 8.46631 11.7125 8.55562 11.6895 8.64124L8.79075 19.4596C8.73926 19.6517 8.61356 19.8156 8.4413 19.915C8.26904 20.0145 8.06432 20.0414 7.87219 19.9899L6.92316 19.7356L5.6281 22.2796L9.07887 23.2043L8.31859 26.0417L11.0666 26.778L11.8269 23.9406L13.8288 24.477L13.0685 27.3144L15.8166 28.0508L16.5769 25.2134L17.1081 25.3557C22.428 26.7812 24.9543 23.0711 24.4593 20.0889ZM18.616 9.79838C20.0142 10.173 21.0696 11.4212 20.7357 12.8122C20.4018 14.2032 18.9376 15.0894 17.4135 14.7017C16.0108 14.344 14.5157 13.9253 14.5157 13.9253L15.8221 9.04975C15.8221 9.04975 17.1502 9.40562 18.616 9.79838ZM16.1714 22.2059C14.7154 21.8443 12.5492 21.2354 12.5492 21.2354L13.908 16.1643C13.908 16.1643 15.907 16.7309 17.4119 17.1031C19.2211 17.5569 20.3217 18.7524 19.9086 20.3422C19.4956 21.932 18.1334 22.698 16.1701 22.2108L16.1714 22.2059Z" fill="white"/>
</svg>
