<svg width="16" height="16" viewBox="0 0 16 16" fill="none" xmlns="http://www.w3.org/2000/svg">
<path d="M7.99994 11.2C7.9472 11.2 7.89564 11.2156 7.85179 11.2449C7.80794 11.2742 7.77376 11.3158 7.75358 11.3646C7.73339 11.4133 7.72811 11.4669 7.7384 11.5186C7.74869 11.5704 7.77409 11.6179 7.81138 11.6552C7.84867 11.6925 7.89619 11.7179 7.94792 11.7282C7.99965 11.7384 8.05326 11.7332 8.10199 11.713C8.15072 11.6928 8.19237 11.6586 8.22167 11.6148C8.25097 11.5709 8.26661 11.5194 8.26661 11.4666C8.26661 11.3959 8.23851 11.3281 8.1885 11.2781C8.1385 11.228 8.07067 11.2 7.99994 11.2Z" stroke="white" stroke-width="1.5" stroke-linecap="round" stroke-linejoin="round"/>
<path d="M8 9.06662V3.19995" stroke="white" stroke-width="1.5" stroke-miterlimit="10" stroke-linecap="round"/>
<path opacity="0.3" d="M8 16C12.4183 16 16 12.4183 16 8C16 3.58172 12.4183 0 8 0C3.58172 0 0 3.58172 0 8C0 12.4183 3.58172 16 8 16Z" fill="white"/>
</svg>
