<svg width="17" height="16" viewBox="0 0 17 16" fill="none" xmlns="http://www.w3.org/2000/svg">
<path d="M12.2667 4.3793e-05C11.5494 -0.00343779 10.8465 0.200742 10.2428 0.587937C9.63906 0.975133 9.16029 1.52879 8.86428 2.18209C8.56827 2.83539 8.46767 3.5604 8.57463 4.26961C8.68158 4.97883 8.99152 5.64192 9.46703 6.17887L8.99983 8.86686L11.434 7.36571C11.9462 7.48377 12.4776 7.49222 12.9934 7.39053C13.5091 7.28884 13.9976 7.07929 14.4267 6.77563C14.8558 6.47196 15.2158 6.08104 15.4833 5.62848C15.7507 5.17592 15.9195 4.67194 15.9786 4.14959C16.0376 3.62724 15.9856 3.0983 15.826 2.59746C15.6663 2.09661 15.4026 1.63516 15.0521 1.24337C14.7016 0.851569 14.2723 0.538267 13.7923 0.323998C13.3122 0.109729 12.7923 -0.000667807 12.2667 4.3793e-05Z" fill="white"/>
<path opacity="0.7" d="M4.26669 11.2C5.59217 11.2 6.66669 10.1255 6.66669 8.80002C6.66669 7.47454 5.59217 6.40002 4.26669 6.40002C2.94121 6.40002 1.8667 7.47454 1.8667 8.80002C1.8667 10.1255 2.94121 11.2 4.26669 11.2Z" fill="white"/>
<path opacity="0.4" d="M8.53331 16C8.39439 14.9669 7.88536 14.0193 7.1007 13.3331C6.31604 12.6469 5.30905 12.2687 4.26665 12.2687C3.22426 12.2687 2.21727 12.6469 1.43261 13.3331C0.64795 14.0193 0.138916 14.9669 0 16" fill="white"/>
</svg>
