<svg width="24" height="21" viewBox="0 0 24 21" fill="none" xmlns="http://www.w3.org/2000/svg">
<path d="M0 2.14284C0 1.19624 0.767679 0.428558 1.71429 0.428558H22.2857C23.2339 0.428558 24 1.19624 24 2.14284C24 3.09106 23.2339 3.85713 22.2857 3.85713H1.71429C0.767679 3.85713 0 3.09106 0 2.14284ZM0 10.7143C0 9.76606 0.767679 8.99999 1.71429 8.99999H22.2857C23.2339 8.99999 24 9.76606 24 10.7143C24 11.6625 23.2339 12.4286 22.2857 12.4286H1.71429C0.767679 12.4286 0 11.6625 0 10.7143ZM22.2857 21H1.71429C0.767679 21 0 20.2339 0 19.2857C0 18.3375 0.767679 17.5714 1.71429 17.5714H22.2857C23.2339 17.5714 24 18.3375 24 19.2857C24 20.2339 23.2339 21 22.2857 21Z" fill="white"/>
</svg>
