<svg width="19" height="16" viewBox="0 0 19 16" fill="none" xmlns="http://www.w3.org/2000/svg">
<path opacity="0.2" d="M17.6429 0H1.35714C0.607614 0 0 0.551034 0 1.23077V14.7692C0 15.449 0.607614 16 1.35714 16H17.6429C18.3924 16 19 15.449 19 14.7692V1.23077C19 0.551034 18.3924 0 17.6429 0Z" fill="white"/>
<path opacity="0.5" d="M1 3.69226H18" stroke="white" stroke-width="1.5" stroke-linecap="round" stroke-linejoin="round"/>
<path opacity="0.7" d="M1 11.0769H5.16246C5.39107 11.077 5.61517 11.0134 5.80966 10.8933C6.00415 10.7731 6.16133 10.6012 6.26359 10.3967L7.72 7.48308C7.77448 7.37408 7.86009 7.28371 7.96599 7.22342C8.07189 7.16313 8.1933 7.13564 8.31484 7.14442C8.43638 7.15321 8.55257 7.19789 8.64869 7.27278C8.74482 7.34768 8.81654 7.44943 8.85477 7.56513L10.3768 12.1313C10.4152 12.2468 10.4869 12.3483 10.583 12.423C10.679 12.4977 10.795 12.5422 10.9164 12.551C11.0378 12.5598 11.159 12.5324 11.2648 12.4723C11.3706 12.4122 11.4562 12.3221 11.5108 12.2133L12.9713 9.29641C13.0734 9.09193 13.2304 8.91991 13.4247 8.79963C13.619 8.67934 13.843 8.61555 14.0716 8.61539H18.2308" stroke="white" stroke-width="1.5" stroke-linecap="round" stroke-linejoin="round"/>
</svg>
