<svg width="16" height="16" viewBox="0 0 16 16" fill="none" xmlns="http://www.w3.org/2000/svg">
<path d="M6.51627 4.48785C6.28649 4.59734 6.09409 4.77215 5.96313 4.99041C5.83728 5.20016 5.77344 5.44126 5.779 5.6858L5.81171 7.12497C5.82639 7.77116 5.443 8.36013 4.84617 8.60825L0.666047 10.3461C0.262781 10.5137 0 10.9075 0 11.3443C0 11.7185 0.38082 11.9722 0.726147 11.828L6.37864 9.46822C6.62253 9.3664 6.82745 9.18922 6.96343 8.96259C7.08371 8.76213 7.14478 8.5317 7.13959 8.29797L7.10553 6.76519C7.0912 6.12018 7.45729 5.52699 8.04026 5.25061L15.5455 1.69256C15.783 1.57997 15.9344 1.34065 15.9344 1.07781C15.9344 0.577687 15.4129 0.248503 14.9614 0.463641L6.51627 4.48785Z" fill="white"/>
<g opacity="0.7">
<path d="M13.0492 5.38886V15.3442C13.0492 15.7064 12.7556 16 12.3934 16C12.0313 16 11.7377 15.7064 11.7377 15.3442V5.38886C11.7377 5.14049 11.878 4.91343 12.1002 4.80235C12.5362 4.58435 13.0492 4.9014 13.0492 5.38886Z" fill="white"/>
<path d="M10.0984 6.83148V15.3442C10.0984 15.7064 9.80478 16 9.44262 16C9.08047 16 8.78689 15.7064 8.78689 15.3442V6.83148C8.78689 6.58311 8.92721 6.35605 9.14937 6.24497C9.58537 6.02697 10.0984 6.34402 10.0984 6.83148Z" fill="white"/>
<path d="M4.2623 12.7718V15.3442C4.2623 15.7064 3.96871 16 3.60656 16C3.2444 16 2.95082 15.7064 2.95082 15.3442V12.7718C2.95082 12.5037 3.11407 12.2626 3.36302 12.163C3.79375 11.9907 4.2623 12.3079 4.2623 12.7718Z" fill="white"/>
<path d="M7.14754 11.5259V15.3442C7.14754 15.7064 6.85396 16 6.4918 16C6.12965 16 5.83607 15.7064 5.83607 15.3442V11.5259C5.83607 11.2578 5.99931 11.0167 6.24827 10.9171C6.679 10.7448 7.14754 11.062 7.14754 11.5259Z" fill="white"/>
<path d="M16 4.01181V15.3442C16 15.7064 15.7064 16 15.3443 16C14.9821 16 14.6885 15.7064 14.6885 15.3442V4.01181C14.6885 3.76344 14.8289 3.53638 15.051 3.4253C15.487 3.2073 16 3.52435 16 4.01181Z" fill="white"/>
<path d="M1.31148 13.9521V15.3442C1.31148 15.7064 1.01789 16 0.655738 16C0.293584 16 0 15.7064 0 15.3442V13.9521C0 13.684 0.163246 13.4429 0.412203 13.3433C0.842934 13.171 1.31148 13.4882 1.31148 13.9521Z" fill="white"/>
</g>
</svg>
