<svg width="50" height="50" viewBox="0 0 50 50" fill="none" xmlns="http://www.w3.org/2000/svg">
<g clip-path="url(#clip0)">
<path d="M49.2143 41.934H1.12633C0.652111 41.934 0.267578 41.5494 0.267578 41.0752V10.1615C0.267578 9.68727 0.652111 9.30273 1.12633 9.30273H49.2144C49.6886 9.30273 50.0731 9.68727 50.0731 10.1615V41.0752C50.073 41.5495 49.6885 41.934 49.2143 41.934Z" fill="#F5F5F5"/>
<path d="M50.073 11.6528H0.267578V10.0013C0.267578 9.52711 0.652111 9.14258 1.12633 9.14258H49.2144C49.6886 9.14258 50.0731 9.52711 50.0731 10.0013L50.073 11.6528Z" fill="#FF4B55"/>
<path d="M50.073 19.1836H0.267578V21.6937H50.073V19.1836Z" fill="#FF4B55"/>
<path d="M50.073 14.1621H0.267578V16.6722H50.073V14.1621Z" fill="#FF4B55"/>
<path d="M50.073 26.7133H1.12633C0.652111 26.7133 0.267578 26.3288 0.267578 25.8546V24.2031H50.073V26.7133Z" fill="#FF4B55"/>
<path d="M50.073 34.2441H0.267578V36.7543H50.073V34.2441Z" fill="#FF4B55"/>
<path d="M48.9467 41.7738H0.858755C0.384533 41.7738 0 41.3893 0 40.9151V39.2637H49.8054V40.9151C49.8054 41.3894 49.4209 41.7738 48.9467 41.7738Z" fill="#FF4B55"/>
<path d="M50.073 29.2246H0.267578V31.7347H50.073V29.2246Z" fill="#FF4B55"/>
<path d="M22.5404 9.14453H1.07262C0.5984 9.14453 0.213867 9.52897 0.213867 10.0032V25.8563C0.213867 26.3305 0.5984 26.7151 1.07262 26.7151H22.5405C23.0147 26.7151 23.3993 26.3305 23.3993 25.8563V10.0032C23.3992 9.52897 23.0146 9.14453 22.5404 9.14453Z" fill="#41479B"/>
<path d="M2.5181 10.7936L2.70818 11.3637L3.30905 11.3683C3.38688 11.3689 3.41907 11.4682 3.35653 11.5144L2.87316 11.8714L3.05448 12.4442C3.07802 12.5183 2.99349 12.5798 2.93016 12.5345L2.44135 12.1852L1.95254 12.5346C1.88921 12.5798 1.80487 12.5184 1.82822 12.4443L2.00954 11.8715L1.52618 11.5145C1.46363 11.4682 1.49583 11.369 1.57365 11.3684L2.17452 11.3638L2.3646 10.7937C2.38911 10.7198 2.49339 10.7198 2.5181 10.7936Z" fill="#F5F5F5"/>
<path d="M2.5181 13.776L2.70818 14.346L3.30905 14.3506C3.38688 14.3513 3.41907 14.4505 3.35653 14.4967L2.87316 14.8537L3.05448 15.4266C3.07802 15.5007 2.99349 15.5622 2.93016 15.5169L2.44135 15.1675L1.95254 15.517C1.88921 15.5622 1.80487 15.5008 1.82822 15.4267L2.00954 14.8538L1.52618 14.4968C1.46363 14.4505 1.49583 14.3514 1.57365 14.3507L2.17452 14.3461L2.3646 13.7761C2.38911 13.7023 2.49339 13.7023 2.5181 13.776Z" fill="#F5F5F5"/>
<path d="M2.5181 16.7584L2.70818 17.3285L3.30905 17.333C3.38688 17.3337 3.41907 17.4329 3.35653 17.4791L2.87316 17.8361L3.05448 18.409C3.07802 18.4831 2.99349 18.5446 2.93016 18.4993L2.44135 18.15L1.95254 18.4994C1.88921 18.5446 1.80487 18.4832 1.82822 18.4091L2.00954 17.8362L1.52618 17.4792C1.46363 17.4329 1.49583 17.3338 1.57365 17.3331L2.17452 17.3286L2.3646 16.7585C2.38911 16.6847 2.49339 16.6847 2.5181 16.7584Z" fill="#F5F5F5"/>
<path d="M2.5181 19.739L2.70818 20.309L3.30905 20.3136C3.38688 20.3142 3.41907 20.4135 3.35653 20.4597L2.87316 20.8167L3.05448 21.3895C3.07802 21.4637 2.99349 21.5251 2.93016 21.4798L2.44135 21.1305L1.95254 21.4799C1.88921 21.5251 1.80487 21.4638 1.82822 21.3896L2.00954 20.8168L1.52618 20.4598C1.46363 20.4135 1.49583 20.3143 1.57365 20.3137L2.17452 20.3091L2.3646 19.7391C2.38911 19.6651 2.49339 19.6651 2.5181 19.739Z" fill="#F5F5F5"/>
<path d="M2.5181 22.7215L2.70818 23.2915L3.30905 23.2961C3.38688 23.2967 3.41907 23.396 3.35653 23.4422L2.87316 23.7992L3.05448 24.372C3.07802 24.4462 2.99349 24.5076 2.93016 24.4623L2.44135 24.113L1.95254 24.4624C1.88921 24.5076 1.80487 24.4463 1.82822 24.3721L2.00954 23.7993L1.52618 23.4423C1.46363 23.396 1.49583 23.2968 1.57365 23.2962L2.17452 23.2916L2.3646 22.7215C2.38911 22.6475 2.49339 22.6475 2.5181 22.7215Z" fill="#F5F5F5"/>
<path d="M4.83256 12.2565L5.02263 12.8265L5.62351 12.8311C5.70133 12.8318 5.73353 12.931 5.67098 12.9772L5.18761 13.3342L5.36894 13.9071C5.39248 13.9812 5.30794 14.0427 5.24462 13.9973L4.7558 13.6479L4.26699 13.9973C4.20366 14.0426 4.11933 13.9812 4.14267 13.9071L4.32399 13.3342L3.84063 12.9772C3.77808 12.9309 3.81028 12.8318 3.8881 12.8311L4.48898 12.8265L4.67905 12.2565C4.70347 12.1827 4.80794 12.1827 4.83256 12.2565Z" fill="#F5F5F5"/>
<path d="M4.83256 15.237L5.02263 15.8071L5.62351 15.8116C5.70133 15.8123 5.73353 15.9115 5.67098 15.9577L5.18761 16.3147L5.36894 16.8876C5.39248 16.9617 5.30794 17.0232 5.24462 16.9779L4.7558 16.6285L4.26699 16.9779C4.20366 17.0231 4.11933 16.9618 4.14267 16.8876L4.32399 16.3147L3.84063 15.9577C3.77808 15.9114 3.81028 15.8123 3.8881 15.8116L4.48898 15.8071L4.67905 15.237C4.70347 15.1632 4.80794 15.1632 4.83256 15.237Z" fill="#F5F5F5"/>
<path d="M4.83256 18.2194L5.02263 18.7895L5.62351 18.794C5.70133 18.7947 5.73353 18.8939 5.67098 18.9402L5.18761 19.2972L5.36894 19.87C5.39248 19.9441 5.30794 20.0056 5.24462 19.9603L4.7558 19.6109L4.26699 19.9603C4.20366 20.0055 4.11933 19.9441 4.14267 19.87L4.32399 19.2972L3.84063 18.9402C3.77808 18.8939 3.81028 18.7947 3.8881 18.794L4.48898 18.7895L4.67905 18.2194C4.70347 18.1456 4.80794 18.1456 4.83256 18.2194Z" fill="#F5F5F5"/>
<path d="M4.83256 21.2018L5.02263 21.7718L5.62351 21.7764C5.70133 21.7771 5.73353 21.8763 5.67098 21.9225L5.18761 22.2795L5.36894 22.8524C5.39248 22.9265 5.30794 22.988 5.24462 22.9426L4.7558 22.5932L4.26699 22.9426C4.20366 22.9879 4.11933 22.9265 4.14267 22.8524L4.32399 22.2795L3.84063 21.9225C3.77808 21.8762 3.81028 21.7771 3.8881 21.7764L4.48898 21.7718L4.67905 21.2018C4.70347 21.1281 4.80794 21.1281 4.83256 21.2018Z" fill="#F5F5F5"/>
<path d="M7.14701 10.7937L7.33709 11.3637L7.93796 11.3683C8.01578 11.3689 8.04798 11.4682 7.98543 11.5144L7.50207 11.8714L7.68339 12.4442C7.70693 12.5184 7.6224 12.5798 7.55907 12.5345L7.07026 12.1851L6.58144 12.5345C6.51812 12.5797 6.43378 12.5184 6.45712 12.4442L6.63845 11.8714L6.15508 11.5144C6.09253 11.4681 6.12473 11.3689 6.20255 11.3683L6.80343 11.3637L6.99351 10.7937C7.01802 10.7198 7.1224 10.7198 7.14701 10.7937Z" fill="#F5F5F5"/>
<path d="M7.14701 13.776L7.33709 14.346L7.93796 14.3506C8.01578 14.3513 8.04798 14.4505 7.98543 14.4967L7.50207 14.8537L7.68339 15.4266C7.70693 15.5007 7.6224 15.5622 7.55907 15.5169L7.07026 15.1674L6.58144 15.5169C6.51812 15.5621 6.43378 15.5007 6.45712 15.4266L6.63845 14.8537L6.15508 14.4967C6.09253 14.4504 6.12473 14.3513 6.20255 14.3506L6.80343 14.346L6.99351 13.776C7.01802 13.7023 7.1224 13.7023 7.14701 13.776Z" fill="#F5F5F5"/>
<path d="M7.14701 16.7565L7.33709 17.3265L7.93796 17.3311C8.01578 17.3318 8.04798 17.431 7.98543 17.4772L7.50207 17.8342L7.68339 18.4071C7.70693 18.4812 7.6224 18.5427 7.55907 18.4973L7.07026 18.1479L6.58144 18.4973C6.51812 18.5426 6.43378 18.4812 6.45712 18.4071L6.63845 17.8342L6.15508 17.4772C6.09253 17.4309 6.12473 17.3318 6.20255 17.3311L6.80343 17.3265L6.99351 16.7565C7.01802 16.6827 7.1224 16.6827 7.14701 16.7565Z" fill="#F5F5F5"/>
<path d="M7.14701 19.739L7.33709 20.309L7.93796 20.3136C8.01578 20.3143 8.04798 20.4135 7.98543 20.4597L7.50207 20.8167L7.68339 21.3895C7.70693 21.4637 7.6224 21.5251 7.55907 21.4798L7.07026 21.1304L6.58144 21.4798C6.51812 21.525 6.43378 21.4637 6.45712 21.3895L6.63845 20.8167L6.15508 20.4597C6.09253 20.4134 6.12473 20.3143 6.20255 20.3136L6.80343 20.309L6.99351 19.739C7.01802 19.6651 7.1224 19.6651 7.14701 19.739Z" fill="#F5F5F5"/>
<path d="M7.14701 22.7215L7.33709 23.2915L7.93796 23.2961C8.01578 23.2968 8.04798 23.396 7.98543 23.4422L7.50207 23.7992L7.68339 24.3721C7.70693 24.4462 7.6224 24.5077 7.55907 24.4623L7.07026 24.1129L6.58144 24.4623C6.51812 24.5076 6.43378 24.4462 6.45712 24.3721L6.63845 23.7992L6.15508 23.4422C6.09253 23.3959 6.12473 23.2968 6.20255 23.2961L6.80343 23.2915L6.99351 22.7215C7.01802 22.6475 7.1224 22.6475 7.14701 22.7215Z" fill="#F5F5F5"/>
<path d="M9.46146 12.2565L9.65154 12.8265L10.2524 12.8311C10.3302 12.8318 10.3624 12.931 10.2999 12.9772L9.81652 13.3342L9.99784 13.9071C10.0214 13.9812 9.93685 14.0427 9.87352 13.9973L9.38471 13.6479L8.8959 13.9973C8.83257 14.0426 8.74823 13.9812 8.77158 13.9071L8.9529 13.3342L8.46954 12.9772C8.40699 12.9309 8.43918 12.8318 8.51701 12.8311L9.11788 12.8265L9.30796 12.2565C9.33238 12.1827 9.43685 12.1827 9.46146 12.2565Z" fill="#F5F5F5"/>
<path d="M9.46146 15.237L9.65154 15.8071L10.2524 15.8116C10.3302 15.8123 10.3624 15.9115 10.2999 15.9577L9.81652 16.3147L9.99784 16.8876C10.0214 16.9617 9.93685 17.0232 9.87352 16.9779L9.38471 16.6285L8.8959 16.9779C8.83257 17.0231 8.74823 16.9618 8.77158 16.8876L8.9529 16.3147L8.46954 15.9577C8.40699 15.9114 8.43918 15.8123 8.51701 15.8116L9.11788 15.8071L9.30796 15.237C9.33238 15.1632 9.43685 15.1632 9.46146 15.237Z" fill="#F5F5F5"/>
<path d="M9.46146 18.2194L9.65154 18.7895L10.2524 18.794C10.3302 18.7947 10.3624 18.8939 10.2999 18.9402L9.81652 19.2972L9.99784 19.87C10.0214 19.9441 9.93685 20.0056 9.87352 19.9603L9.38471 19.6109L8.8959 19.9603C8.83257 20.0055 8.74823 19.9441 8.77158 19.87L8.9529 19.2972L8.46954 18.9402C8.40699 18.8939 8.43918 18.7947 8.51701 18.794L9.11788 18.7895L9.30796 18.2194C9.33238 18.1456 9.43685 18.1456 9.46146 18.2194Z" fill="#F5F5F5"/>
<path d="M9.46146 21.2018L9.65154 21.7718L10.2524 21.7764C10.3302 21.7771 10.3624 21.8763 10.2999 21.9225L9.81652 22.2795L9.99784 22.8524C10.0214 22.9265 9.93685 22.988 9.87352 22.9426L9.38471 22.5932L8.8959 22.9426C8.83257 22.9879 8.74823 22.9265 8.77158 22.8524L8.9529 22.2795L8.46954 21.9225C8.40699 21.8762 8.43918 21.7771 8.51701 21.7764L9.11788 21.7718L9.30796 21.2018C9.33238 21.1281 9.43685 21.1281 9.46146 21.2018Z" fill="#F5F5F5"/>
<path d="M11.776 10.7937L11.9661 11.3637L12.567 11.3683C12.6448 11.3689 12.677 11.4682 12.6144 11.5144L12.1311 11.8714L12.3124 12.4442C12.3359 12.5184 12.2514 12.5798 12.1881 12.5345L11.6992 12.1851L11.2104 12.5345C11.147 12.5797 11.0627 12.5184 11.086 12.4442L11.2674 11.8714L10.784 11.5144C10.7214 11.4681 10.7536 11.3689 10.8315 11.3683L11.4323 11.3637L11.6224 10.7937C11.647 10.7198 11.7514 10.7198 11.776 10.7937Z" fill="#F5F5F5"/>
<path d="M11.776 13.776L11.9661 14.346L12.567 14.3506C12.6448 14.3513 12.677 14.4505 12.6144 14.4967L12.1311 14.8537L12.3124 15.4266C12.3359 15.5007 12.2514 15.5622 12.1881 15.5169L11.6992 15.1674L11.2104 15.5169C11.147 15.5621 11.0627 15.5007 11.086 15.4266L11.2674 14.8537L10.784 14.4967C10.7214 14.4504 10.7536 14.3513 10.8315 14.3506L11.4323 14.346L11.6224 13.776C11.647 13.7023 11.7514 13.7023 11.776 13.776Z" fill="#F5F5F5"/>
<path d="M11.776 16.7565L11.9661 17.3265L12.567 17.3311C12.6448 17.3318 12.677 17.431 12.6144 17.4772L12.1311 17.8342L12.3124 18.4071C12.3359 18.4812 12.2514 18.5427 12.1881 18.4973L11.6992 18.1479L11.2104 18.4973C11.147 18.5426 11.0627 18.4812 11.086 18.4071L11.2674 17.8342L10.784 17.4772C10.7214 17.4309 10.7536 17.3318 10.8315 17.3311L11.4323 17.3265L11.6224 16.7565C11.647 16.6827 11.7514 16.6827 11.776 16.7565Z" fill="#F5F5F5"/>
<path d="M11.776 19.739L11.9661 20.309L12.567 20.3136C12.6448 20.3143 12.677 20.4135 12.6144 20.4597L12.1311 20.8167L12.3124 21.3895C12.3359 21.4637 12.2514 21.5251 12.1881 21.4798L11.6992 21.1304L11.2104 21.4798C11.147 21.525 11.0627 21.4637 11.086 21.3895L11.2674 20.8167L10.784 20.4597C10.7214 20.4134 10.7536 20.3143 10.8315 20.3136L11.4323 20.309L11.6224 19.739C11.647 19.6651 11.7514 19.6651 11.776 19.739Z" fill="#F5F5F5"/>
<path d="M11.776 22.7215L11.9661 23.2915L12.567 23.2961C12.6448 23.2968 12.677 23.396 12.6144 23.4422L12.1311 23.7992L12.3124 24.3721C12.3359 24.4462 12.2514 24.5077 12.1881 24.4623L11.6992 24.1129L11.2104 24.4623C11.147 24.5076 11.0627 24.4462 11.086 24.3721L11.2674 23.7992L10.784 23.4422C10.7214 23.3959 10.7536 23.2968 10.8315 23.2961L11.4323 23.2915L11.6224 22.7215C11.647 22.6475 11.7514 22.6475 11.776 22.7215Z" fill="#F5F5F5"/>
<path d="M14.0904 12.2565L14.2804 12.8265L14.8813 12.8311C14.9591 12.8318 14.9913 12.931 14.9288 12.9772L14.4454 13.3342L14.6267 13.9071C14.6503 13.9812 14.5658 14.0427 14.5024 13.9973L14.0136 13.6479L13.5248 13.9973C13.4615 14.0426 13.3771 13.9812 13.4005 13.9071L13.5818 13.3342L13.0984 12.9772C13.0359 12.9309 13.0681 12.8318 13.1459 12.8311L13.7468 12.8265L13.9369 12.2565C13.9615 12.1827 14.0658 12.1827 14.0904 12.2565Z" fill="#F5F5F5"/>
<path d="M14.0904 15.237L14.2804 15.8071L14.8813 15.8116C14.9591 15.8123 14.9913 15.9115 14.9288 15.9577L14.4454 16.3147L14.6267 16.8876C14.6503 16.9617 14.5658 17.0232 14.5024 16.9779L14.0136 16.6285L13.5248 16.9779C13.4615 17.0231 13.3771 16.9618 13.4005 16.8876L13.5818 16.3147L13.0984 15.9577C13.0359 15.9114 13.0681 15.8123 13.1459 15.8116L13.7468 15.8071L13.9369 15.237C13.9615 15.1632 14.0658 15.1632 14.0904 15.237Z" fill="#F5F5F5"/>
<path d="M14.0904 18.2194L14.2804 18.7895L14.8813 18.794C14.9591 18.7947 14.9913 18.8939 14.9288 18.9402L14.4454 19.2972L14.6267 19.87C14.6503 19.9441 14.5658 20.0056 14.5024 19.9603L14.0136 19.6109L13.5248 19.9603C13.4615 20.0055 13.3771 19.9441 13.4005 19.87L13.5818 19.2972L13.0984 18.9402C13.0359 18.8939 13.0681 18.7947 13.1459 18.794L13.7468 18.7895L13.9369 18.2194C13.9615 18.1456 14.0658 18.1456 14.0904 18.2194Z" fill="#F5F5F5"/>
<path d="M14.0904 21.2018L14.2804 21.7718L14.8813 21.7764C14.9591 21.7771 14.9913 21.8763 14.9288 21.9225L14.4454 22.2795L14.6267 22.8524C14.6503 22.9265 14.5658 22.988 14.5024 22.9426L14.0136 22.5932L13.5248 22.9426C13.4615 22.9879 13.3771 22.9265 13.4005 22.8524L13.5818 22.2795L13.0984 21.9225C13.0359 21.8762 13.0681 21.7771 13.1459 21.7764L13.7468 21.7718L13.9369 21.2018C13.9615 21.1281 14.0658 21.1281 14.0904 21.2018Z" fill="#F5F5F5"/>
<path d="M16.4048 10.7937L16.5949 11.3637L17.1958 11.3683C17.2736 11.3689 17.3058 11.4682 17.2432 11.5144L16.7599 11.8714L16.9412 12.4442C16.9647 12.5184 16.8802 12.5798 16.8169 12.5345L16.3281 12.1851L15.8393 12.5345C15.7759 12.5797 15.6916 12.5184 15.7149 12.4442L15.8963 11.8714L15.4129 11.5144C15.3503 11.4681 15.3825 11.3689 15.4604 11.3683L16.0612 11.3637L16.2513 10.7937C16.2757 10.7198 16.3802 10.7198 16.4048 10.7937Z" fill="#F5F5F5"/>
<path d="M16.4048 13.776L16.5949 14.346L17.1958 14.3506C17.2736 14.3513 17.3058 14.4505 17.2432 14.4967L16.7599 14.8537L16.9412 15.4266C16.9647 15.5007 16.8802 15.5622 16.8169 15.5169L16.3281 15.1674L15.8393 15.5169C15.7759 15.5621 15.6916 15.5007 15.7149 15.4266L15.8963 14.8537L15.4129 14.4967C15.3503 14.4504 15.3825 14.3513 15.4604 14.3506L16.0612 14.346L16.2513 13.776C16.2757 13.7023 16.3802 13.7023 16.4048 13.776Z" fill="#F5F5F5"/>
<path d="M16.4048 16.7565L16.5949 17.3265L17.1958 17.3311C17.2736 17.3318 17.3058 17.431 17.2432 17.4772L16.7599 17.8342L16.9412 18.4071C16.9647 18.4812 16.8802 18.5427 16.8169 18.4973L16.3281 18.1479L15.8393 18.4973C15.7759 18.5426 15.6916 18.4812 15.7149 18.4071L15.8963 17.8342L15.4129 17.4772C15.3503 17.4309 15.3825 17.3318 15.4604 17.3311L16.0612 17.3265L16.2513 16.7565C16.2757 16.6827 16.3802 16.6827 16.4048 16.7565Z" fill="#F5F5F5"/>
<path d="M16.4048 19.739L16.5949 20.309L17.1958 20.3136C17.2736 20.3143 17.3058 20.4135 17.2432 20.4597L16.7599 20.8167L16.9412 21.3895C16.9647 21.4637 16.8802 21.5251 16.8169 21.4798L16.3281 21.1304L15.8393 21.4798C15.7759 21.525 15.6916 21.4637 15.7149 21.3895L15.8963 20.8167L15.4129 20.4597C15.3503 20.4134 15.3825 20.3143 15.4604 20.3136L16.0612 20.309L16.2513 19.739C16.2757 19.6651 16.3802 19.6651 16.4048 19.739Z" fill="#F5F5F5"/>
<path d="M16.4048 22.7215L16.5949 23.2915L17.1958 23.2961C17.2736 23.2968 17.3058 23.396 17.2432 23.4422L16.7599 23.7992L16.9412 24.3721C16.9647 24.4462 16.8802 24.5077 16.8169 24.4623L16.3281 24.1129L15.8393 24.4623C15.7759 24.5076 15.6916 24.4462 15.7149 24.3721L15.8963 23.7992L15.4129 23.4422C15.3503 23.3959 15.3825 23.2968 15.4604 23.2961L16.0612 23.2915L16.2513 22.7215C16.2757 22.6475 16.3802 22.6475 16.4048 22.7215Z" fill="#F5F5F5"/>
<path d="M18.7193 12.2565L18.9093 12.8265L19.5102 12.8311C19.588 12.8318 19.6202 12.931 19.5577 12.9772L19.0743 13.3342L19.2556 13.9071C19.2792 13.9812 19.1947 14.0427 19.1313 13.9973L18.6425 13.6479L18.1537 13.9973C18.0904 14.0426 18.006 13.9812 18.0294 13.9071L18.2107 13.3342L17.7273 12.9772C17.6648 12.9309 17.697 12.8318 17.7748 12.8311L18.3757 12.8265L18.5658 12.2565C18.5903 12.1827 18.6948 12.1827 18.7193 12.2565Z" fill="#F5F5F5"/>
<path d="M18.7193 15.237L18.9093 15.8071L19.5102 15.8116C19.588 15.8123 19.6202 15.9115 19.5577 15.9577L19.0743 16.3147L19.2556 16.8876C19.2792 16.9617 19.1947 17.0232 19.1313 16.9779L18.6425 16.6285L18.1537 16.9779C18.0904 17.0231 18.006 16.9618 18.0294 16.8876L18.2107 16.3147L17.7273 15.9577C17.6648 15.9114 17.697 15.8123 17.7748 15.8116L18.3757 15.8071L18.5658 15.237C18.5903 15.1632 18.6948 15.1632 18.7193 15.237Z" fill="#F5F5F5"/>
<path d="M18.7193 18.2194L18.9093 18.7895L19.5102 18.794C19.588 18.7947 19.6202 18.8939 19.5577 18.9402L19.0743 19.2972L19.2556 19.87C19.2792 19.9441 19.1947 20.0056 19.1313 19.9603L18.6425 19.6109L18.1537 19.9603C18.0904 20.0055 18.006 19.9441 18.0294 19.87L18.2107 19.2972L17.7273 18.9402C17.6648 18.8939 17.697 18.7947 17.7748 18.794L18.3757 18.7895L18.5658 18.2194C18.5903 18.1456 18.6948 18.1456 18.7193 18.2194Z" fill="#F5F5F5"/>
<path d="M18.7193 21.2018L18.9093 21.7718L19.5102 21.7764C19.588 21.7771 19.6202 21.8763 19.5577 21.9225L19.0743 22.2795L19.2556 22.8524C19.2792 22.9265 19.1947 22.988 19.1313 22.9426L18.6425 22.5932L18.1537 22.9426C18.0904 22.9879 18.006 22.9265 18.0294 22.8524L18.2107 22.2795L17.7273 21.9225C17.6648 21.8762 17.697 21.7771 17.7748 21.7764L18.3757 21.7718L18.5658 21.2018C18.5903 21.1281 18.6948 21.1281 18.7193 21.2018Z" fill="#F5F5F5"/>
<path d="M21.0347 10.7937L21.2248 11.3637L21.8257 11.3683C21.9035 11.3689 21.9357 11.4682 21.8731 11.5144L21.3898 11.8714L21.5711 12.4442C21.5946 12.5184 21.5101 12.5798 21.4468 12.5345L20.958 12.1851L20.4691 12.5345C20.4058 12.5797 20.3215 12.5184 20.3448 12.4442L20.5261 11.8714L20.0428 11.5144C19.9802 11.4681 20.0124 11.3689 20.0902 11.3683L20.6911 11.3637L20.8812 10.7937C20.9057 10.7198 21.01 10.7198 21.0347 10.7937Z" fill="#F5F5F5"/>
<path d="M21.0347 13.776L21.2248 14.346L21.8257 14.3506C21.9035 14.3513 21.9357 14.4505 21.8731 14.4967L21.3898 14.8537L21.5711 15.4266C21.5946 15.5007 21.5101 15.5622 21.4468 15.5169L20.958 15.1674L20.4691 15.5169C20.4058 15.5621 20.3215 15.5007 20.3448 15.4266L20.5261 14.8537L20.0428 14.4967C19.9802 14.4504 20.0124 14.3513 20.0902 14.3506L20.6911 14.346L20.8812 13.776C20.9057 13.7023 21.01 13.7023 21.0347 13.776Z" fill="#F5F5F5"/>
<path d="M21.0347 16.7565L21.2248 17.3265L21.8257 17.3311C21.9035 17.3318 21.9357 17.431 21.8731 17.4772L21.3898 17.8342L21.5711 18.4071C21.5946 18.4812 21.5101 18.5427 21.4468 18.4973L20.958 18.1479L20.4691 18.4973C20.4058 18.5426 20.3215 18.4812 20.3448 18.4071L20.5261 17.8342L20.0428 17.4772C19.9802 17.4309 20.0124 17.3318 20.0902 17.3311L20.6911 17.3265L20.8812 16.7565C20.9057 16.6827 21.01 16.6827 21.0347 16.7565Z" fill="#F5F5F5"/>
<path d="M21.0347 19.739L21.2248 20.309L21.8257 20.3136C21.9035 20.3143 21.9357 20.4135 21.8731 20.4597L21.3898 20.8167L21.5711 21.3895C21.5946 21.4637 21.5101 21.5251 21.4468 21.4798L20.958 21.1304L20.4691 21.4798C20.4058 21.525 20.3215 21.4637 20.3448 21.3895L20.5261 20.8167L20.0428 20.4597C19.9802 20.4134 20.0124 20.3143 20.0902 20.3136L20.6911 20.309L20.8812 19.739C20.9057 19.6651 21.01 19.6651 21.0347 19.739Z" fill="#F5F5F5"/>
<path d="M21.0347 22.7215L21.2248 23.2915L21.8257 23.2961C21.9035 23.2968 21.9357 23.396 21.8731 23.4422L21.3898 23.7992L21.5711 24.3721C21.5946 24.4462 21.5101 24.5077 21.4468 24.4623L20.958 24.1129L20.4691 24.4623C20.4058 24.5076 20.3215 24.4462 20.3448 24.3721L20.5261 23.7992L20.0428 23.4422C19.9802 23.3959 20.0124 23.2968 20.0902 23.2961L20.6911 23.2915L20.8812 22.7215C20.9057 22.6475 21.01 22.6475 21.0347 22.7215Z" fill="#F5F5F5"/>
</g>
<defs>
<clipPath id="clip0">
<rect width="50" height="32.6656" fill="white" transform="translate(0 9)"/>
</clipPath>
</defs>
</svg>
