<svg width="21" height="18" viewBox="0 0 21 18" fill="none" xmlns="http://www.w3.org/2000/svg">
<path d="M10.4838 17C8.22815 17 5.97759 17 3.72191 17C2.62995 17 1.77894 16.5437 1.20989 15.6004C0.953563 15.1749 0.835652 14.7084 0.830526 14.2163C0.825399 13.6267 0.830526 13.032 0.830526 12.4425C0.830526 9.57674 0.830526 6.71612 0.830526 3.85037C0.830526 2.59949 1.54824 1.5588 2.71197 1.16405C3.02982 1.05639 3.37843 1.00513 3.71165 1.00513C8.23841 1 12.7652 1 17.2868 1C18.6966 1 19.8091 1.87664 20.1013 3.20955C20.1474 3.42999 20.1679 3.66069 20.1679 3.88113C20.173 7.28517 20.173 10.6892 20.1679 14.0932C20.1679 15.7748 18.958 16.9846 17.2765 16.9897C15.0157 17 12.7498 17 10.4838 17ZM19.0298 11.7914C18.958 11.7914 18.8863 11.7914 18.8094 11.7914C17.5431 11.7914 16.2769 11.7965 15.0157 11.7914C12.9856 11.776 11.6424 9.82281 12.3807 7.967C12.801 6.89555 13.8264 6.21884 15.0311 6.21371C16.2974 6.20859 17.5636 6.21371 18.8248 6.21371C18.8965 6.21371 18.9734 6.21371 19.0503 6.21371C19.0503 5.36783 19.0503 4.55271 19.0503 3.73246C19.0503 3.61967 19.0349 3.50689 19.0042 3.39923C18.7837 2.59436 18.1532 2.12784 17.2817 2.12784C12.7703 2.12784 8.25379 2.12784 3.74241 2.12784C2.67096 2.12784 1.95837 2.82506 1.95837 3.89138C1.95324 7.29542 1.95324 10.7046 1.9635 14.1086C1.9635 14.3855 2.01989 14.6828 2.1378 14.9289C2.45565 15.6004 3.02469 15.8824 3.75779 15.8824C8.25891 15.8824 12.76 15.8824 17.2612 15.8824C17.3381 15.8824 17.4098 15.8824 17.4867 15.8773C18.3429 15.8158 19.0093 15.1801 19.0452 14.3239C19.0811 13.5088 19.0606 12.6886 19.0606 11.8683C19.0503 11.8427 19.0401 11.8273 19.0298 11.7914ZM19.0452 7.3313C18.6094 7.3313 18.1891 7.3313 17.7687 7.3313C16.7895 7.33643 15.8052 7.32105 14.826 7.34668C14.0827 7.36719 13.4419 7.97725 13.324 8.70522C13.1497 9.76642 13.9135 10.6584 15.026 10.6687C16.3179 10.6789 17.6046 10.6687 18.8965 10.6687C18.9427 10.6687 18.9939 10.6584 19.0452 10.6533C19.0452 9.55111 19.0452 8.45402 19.0452 7.3313Z" fill="white" stroke="white"/>
</svg>
