<svg width="48" height="30" viewBox="0 0 48 30" fill="none" xmlns="http://www.w3.org/2000/svg">
<g clip-path="url(#clip0)">
<path d="M18.4355 0H0V32H18.4355H48.001V0H18.4355Z" fill="#D80027"/>
<path d="M24.0002 6.74414L26.1249 13.2831H33.0004L27.4379 17.3243L29.5627 23.8634L24.0002 19.8221L18.4377 23.8634L20.5625 17.3243L15 13.2831H21.8755L24.0002 6.74414Z" fill="#FFDA44"/>
<path d="M47.1723 31.4483H0.827623C0.370593 31.4483 0 31.0777 0 30.6207V0.827623C0 0.370593 0.370593 0 0.827623 0H47.1724C47.6294 0 48 0.370593 48 0.827623V30.6207C47.9999 31.0778 47.6293 31.4483 47.1723 31.4483Z" fill="#006C32"/>
<path d="M9.9326 10.685C10.0142 11.2078 10.3302 11.3719 10.605 11.3504C10.929 11.3253 11.2131 11.029 11.2131 10.7161V8.92192C11.2131 8.83211 11.2863 8.75879 11.3763 8.75879C11.4663 8.75879 11.5394 8.83201 11.5394 8.92192V10.7238C11.5394 10.9404 11.6464 11.1425 11.826 11.2638C11.9356 11.338 12.0632 11.3762 12.1917 11.3762C12.2735 11.3762 12.3558 11.3605 12.4341 11.3293L12.5972 11.2642C12.6122 12.7703 12.5206 14.0939 12.5189 14.1182C12.5061 14.2979 12.6413 14.454 12.821 14.4668C12.829 14.4674 12.8368 14.4677 12.8447 14.4677C13.0143 14.4677 13.1575 14.3364 13.1698 14.1647C13.1774 14.0587 13.2779 12.609 13.2478 11.0039L13.3464 10.9645C13.4328 10.9301 13.53 10.9343 13.6131 10.9757C13.9725 11.1548 14.4048 11.0849 14.6888 10.801L14.7476 10.7424C15.0112 10.4783 15.1019 10.0946 14.9838 9.74073L14.7061 8.90739C14.8562 8.95257 15.0212 8.88611 15.0938 8.74145C15.1744 8.58029 15.1091 8.38436 14.9479 8.30373L14.2955 7.97748C14.1775 7.91823 14.0358 7.93642 13.9358 8.02267C13.8361 8.10939 13.7984 8.24729 13.8401 8.37245L14.365 9.94726C14.4043 10.0651 14.3741 10.1932 14.2862 10.2811L14.2276 10.3398C14.1425 10.4248 14.013 10.4455 13.9047 10.392C13.6933 10.2864 13.4525 10.2666 13.2267 10.3241C13.1808 9.27704 13.0681 8.23436 12.8279 7.51351C12.771 7.3427 12.5866 7.25008 12.4151 7.30736C12.2442 7.36408 12.1518 7.54876 12.2088 7.71995C12.4439 8.42486 12.5463 9.49914 12.5826 10.5673L12.1921 10.7235V8.92164C12.1921 8.47183 11.8262 8.10601 11.3764 8.10601C10.9267 8.10601 10.5608 8.47173 10.5608 8.92164V10.5009L10.228 8.85695C10.1926 8.68014 10.0206 8.56483 9.84363 8.60176C9.66691 8.63776 9.55273 8.80979 9.58863 8.98633L9.9326 10.685Z" fill="#F5F5F5"/>
<path d="M10.5606 7.94335C10.7408 7.94335 10.8869 7.79747 10.8869 7.6171V7.29085C10.8869 7.11057 10.7408 6.9646 10.5606 6.9646C10.3804 6.9646 10.2344 7.11048 10.2344 7.29085V7.6171C10.2344 7.79738 10.3804 7.94335 10.5606 7.94335Z" fill="#F5F5F5"/>
<path d="M13.8223 7.6171H14.1486C14.3288 7.6171 14.4748 7.47122 14.4748 7.29085C14.4748 7.11057 14.3288 6.9646 14.1486 6.9646H13.8223C13.6422 6.9646 13.4961 7.11048 13.4961 7.29085C13.4961 7.47122 13.6422 7.6171 13.8223 7.6171Z" fill="#F5F5F5"/>
<path d="M11.6978 11.905L10.0666 12.8837C9.91204 12.9765 9.86207 13.1768 9.95479 13.3314C10.0159 13.4333 10.1239 13.4897 10.2348 13.4897C10.292 13.4897 10.3498 13.4747 10.4024 13.4431L12.0336 12.4644C12.1882 12.3717 12.2382 12.1713 12.1454 12.0167C12.0527 11.8622 11.8525 11.8123 11.6978 11.905Z" fill="#F5F5F5"/>
<path d="M16.0953 12.4826L16.103 12.4774C16.1303 12.5877 16.1773 12.6944 16.2535 12.784C16.3861 12.9401 16.5848 13.0186 16.8095 13C17.1281 12.9767 17.3447 12.8311 17.4881 12.6432C17.51 12.6582 17.5329 12.6719 17.5569 12.684C17.7333 12.7728 17.9372 12.7662 18.1313 12.6654C18.6244 12.4115 18.7306 11.8241 18.7156 11.517C18.7068 11.3379 18.5545 11.2115 18.3759 11.208C18.1968 11.2156 18.0573 11.3676 18.0637 11.5467C18.0639 11.5508 18.0711 11.9379 17.8345 12.0816C17.7959 12.0278 17.7501 11.9067 17.7329 11.8066C17.7053 11.6387 17.5511 11.5218 17.3852 11.5352C17.2161 11.5486 17.0854 11.6907 17.0848 11.8605C17.0846 11.9079 17.0741 12.3265 16.751 12.3616C16.7134 12.3103 16.7127 12.0943 16.7497 11.9346C16.781 11.8036 16.7285 11.667 16.6177 11.5906C16.5067 11.5138 16.3603 11.5138 16.2488 11.5893L16.0668 11.7132C15.9803 9.82131 15.7811 7.61678 15.7787 7.58856C15.7625 7.4095 15.6048 7.276 15.4243 7.29325C15.2449 7.30947 15.1126 7.46819 15.1289 7.6479C15.1317 7.67809 15.3621 10.2287 15.4331 12.1766C15.4164 12.1924 15.3993 12.2098 15.383 12.225C15.254 11.8997 14.9982 11.6949 14.6689 11.6637C14.2041 11.6226 13.7004 11.9389 13.5199 12.3907C13.3643 12.7794 13.4622 13.1614 13.7693 13.3636C13.99 13.5092 14.3232 13.5551 14.7422 13.4083C14.6399 13.7676 14.4536 14.1321 14.2116 14.414C13.9947 14.6667 13.6327 14.9581 13.1693 14.9451C12.8996 14.9345 12.6924 14.8463 12.5358 14.6749C12.1581 14.2623 12.1906 13.5156 12.1909 13.5076C12.2003 13.3279 12.0626 13.1747 11.8831 13.1648C11.7023 13.1457 11.5493 13.2926 11.5393 13.4726C11.5371 13.5139 11.4897 14.4953 12.0516 15.1124C12.3281 15.4166 12.6955 15.5794 13.1437 15.597C13.1655 15.5979 13.1873 15.5982 13.2093 15.5982C13.755 15.5982 14.2845 15.3305 14.7063 14.839C15.103 14.377 15.3725 13.7494 15.4533 13.1669C15.4522 14.2829 14.7797 15.5415 13.888 16.0961C13.5094 16.3312 12.919 16.5434 12.2541 16.2155C11.4343 15.8109 11.532 14.874 11.5363 14.8357C11.5587 14.6569 11.4319 14.4939 11.2531 14.4716C11.0752 14.4499 10.9111 14.5757 10.889 14.7548C10.8817 14.8131 10.7249 16.1884 11.9654 16.8004C12.2841 16.9577 12.6173 17.0358 12.9531 17.0358C13.3844 17.0358 13.8198 16.9068 14.2325 16.65C15.3181 15.9752 16.1061 14.5092 16.1061 13.1641C16.106 12.9539 16.1019 12.7242 16.0953 12.4826ZM14.1281 12.8189C14.0698 12.7802 14.1154 12.6571 14.1252 12.6325C14.1939 12.4605 14.4088 12.3117 14.5805 12.3117C14.5893 12.3117 14.5982 12.312 14.6067 12.3129C14.6484 12.3167 14.7592 12.3272 14.8068 12.5735C14.8118 12.5997 14.8162 12.6264 14.8195 12.6538C14.456 12.8673 14.2122 12.8741 14.1281 12.8189Z" fill="#F5F5F5"/>
<path d="M10.725 15.8189C10.5705 15.728 10.3708 15.78 10.2791 15.9346C10.2641 15.9597 10.2442 15.9872 10.224 16.0119C10.2204 16.0037 10.2169 15.9948 10.2134 15.9851C10.0773 15.6222 10.1742 15.0632 10.2231 14.8783C10.2691 14.7044 10.1655 14.526 9.99174 14.4794C9.81811 14.4348 9.63952 14.5361 9.59283 14.7101C9.56911 14.7983 9.36858 15.5903 9.60239 16.2141C9.75211 16.613 9.98199 16.7137 10.1486 16.7273C10.1634 16.7285 10.178 16.7292 10.1925 16.7292C10.5437 16.7292 10.7775 16.3753 10.8424 16.2632C10.9325 16.1078 10.8797 15.91 10.725 15.8189Z" fill="#F5F5F5"/>
<path d="M16.7464 9.90056C16.817 9.90056 16.8881 9.87787 16.9477 9.83081L18.5924 8.5396C18.6151 8.52178 18.6296 8.49844 18.6462 8.4765C18.8831 8.33363 19.0434 8.07638 19.0434 7.78022C19.0434 7.33041 18.6775 6.9646 18.2277 6.9646C17.778 6.9646 17.4121 7.33032 17.4121 7.78022C17.4121 8.03194 17.5291 8.25441 17.7087 8.40413L16.5447 9.318C16.403 9.42919 16.3783 9.63431 16.4895 9.77578C16.5539 9.85781 16.6497 9.90056 16.7464 9.90056ZM18.2278 7.617C18.3178 7.617 18.391 7.69022 18.391 7.78013C18.391 7.87004 18.3178 7.94325 18.2278 7.94325C18.1378 7.94325 18.0647 7.87004 18.0647 7.78013C18.0647 7.69022 18.1378 7.617 18.2278 7.617Z" fill="#F5F5F5"/>
<path d="M17.8399 9.59203C17.668 9.53475 17.484 9.62737 17.4271 9.79818C17.3922 9.90262 17.2344 10.4408 17.5542 10.7602C17.6783 10.8845 17.8414 10.9466 18.0416 10.9462C18.1754 10.9462 18.3258 10.9189 18.4923 10.8631C18.6632 10.8064 18.7555 10.6217 18.6985 10.4505C18.6415 10.2797 18.4571 10.1867 18.2858 10.2443C18.1035 10.3049 18.0264 10.2951 18.0194 10.3013C18.0002 10.253 18.0128 10.1073 18.0463 10.0031C18.1028 9.83287 18.0104 9.64875 17.8399 9.59203Z" fill="#F5F5F5"/>
<path d="M21.5728 8.24314C21.6034 8.25205 21.6341 8.25617 21.6644 8.25617C21.8057 8.25617 21.9358 8.16383 21.9774 8.02133L22.1677 7.36892C22.2181 7.19595 22.1188 7.01464 21.946 6.9643C21.7726 6.91424 21.5919 7.01305 21.5414 7.18602L21.3511 7.83842C21.3005 8.01167 21.3999 8.19289 21.5728 8.24314Z" fill="#F5F5F5"/>
<path d="M19.6725 8.20516C19.7243 8.23545 19.7811 8.24979 19.8369 8.24979C19.949 8.24979 20.0581 8.19213 20.1188 8.08835C20.2097 7.93291 20.1574 7.73276 20.0019 7.64201C19.9362 7.60376 19.9451 7.49576 19.9476 7.47438C19.9573 7.3887 20.0084 7.28417 20.0973 7.25651C20.2693 7.20307 20.3654 7.02017 20.3119 6.84813C20.2581 6.67582 20.0755 6.58048 19.9032 6.63335C19.578 6.7346 19.3409 7.03573 19.2992 7.40023C19.2606 7.73941 19.4036 8.04785 19.6725 8.20516Z" fill="#F5F5F5"/>
<path d="M17.0841 13.4888C16.9039 13.4888 16.7578 13.6346 16.7578 13.815C16.7578 13.9743 16.8719 14.1069 17.0228 14.1355C17.04 14.1606 17.084 14.247 17.084 14.4674C17.084 14.6477 17.23 14.7937 17.4102 14.7937C17.5904 14.7937 17.7365 14.6478 17.7365 14.4674C17.7366 13.4999 17.1107 13.4888 17.0841 13.4888Z" fill="#F5F5F5"/>
<path d="M22.6197 12.1384C22.6606 12.1451 22.7014 12.1482 22.7424 12.1482C22.9987 12.1482 23.2576 12.019 23.5141 11.7625C23.6415 11.635 23.6415 11.4286 23.5141 11.3012C23.3867 11.1738 23.1803 11.1738 23.0529 11.3012C22.8578 11.4965 22.7528 11.5006 22.7259 11.4945C22.6636 11.4856 22.6072 11.4043 22.5946 11.3821C22.5128 11.2234 22.3187 11.1601 22.159 11.24C21.9978 11.3206 21.9324 11.5165 22.0131 11.6777C22.0333 11.7182 22.2216 12.0737 22.6197 12.1384Z" fill="#F5F5F5"/>
<path d="M28.1641 9.84653C28.162 9.84147 28.1601 9.83669 28.1585 9.83219C28.1006 9.66278 27.9158 9.57063 27.7467 9.62828C27.5756 9.685 27.4833 9.86969 27.5403 10.0409C27.5657 10.1173 27.7111 10.5009 28.0711 10.5493C28.0952 10.5525 28.1191 10.5541 28.1428 10.5541C28.3688 10.5541 28.5808 10.4078 28.7737 10.1185C28.8736 9.96878 28.8331 9.76619 28.6832 9.66616C28.5331 9.56641 28.3305 9.60653 28.2308 9.75672C28.2051 9.79525 28.1827 9.8246 28.1641 9.84653Z" fill="#F5F5F5"/>
<path d="M27.5252 15.773C27.5252 14.3819 27.464 13.0768 27.3791 11.9332C27.8423 12.7366 28.259 13.5484 28.5245 14.2565C28.5737 14.3875 28.698 14.4681 28.83 14.4681C28.868 14.4681 28.9067 14.4614 28.9444 14.4474C29.1132 14.384 29.1987 14.1961 29.1354 14.0272C28.7224 12.9264 27.9803 11.6154 27.2488 10.4516C27.0705 8.69426 26.8708 7.57883 26.8673 7.55895C26.8352 7.38158 26.6657 7.26177 26.4881 7.29636C26.3108 7.32852 26.1933 7.4983 26.2254 7.67549C26.228 7.68964 26.3308 8.26423 26.4537 9.23126C26.203 8.85936 25.9701 8.52383 25.7748 8.24764L25.7907 8.2527C25.9625 8.30998 26.1464 8.21736 26.2035 8.04655C26.2605 7.87545 26.1681 7.69067 25.9972 7.63396L25.0185 7.30771C24.8827 7.26186 24.7338 7.31033 24.6507 7.4263C24.6285 7.45724 24.6133 7.49117 24.603 7.52624C24.4077 7.38186 24.1572 7.26449 23.9221 7.36292C23.7799 7.42189 23.6104 7.5703 23.6104 7.94333C23.6104 8.22974 23.7196 8.53939 23.8354 8.86752C24.0275 9.41164 24.1478 9.81176 23.9444 10.0026C23.832 10.108 23.7196 10.1479 23.6101 10.1202C23.4089 10.0692 23.2098 9.80126 23.0771 9.40339C23.0713 9.38614 23.0593 9.37358 23.051 9.35811C23.1197 8.8528 23.0898 8.24399 22.9515 7.55314C22.9163 7.37633 22.7449 7.2613 22.5676 7.2973C22.3909 7.33264 22.2764 7.50439 22.3117 7.6812C22.5247 8.74648 22.4608 9.61555 22.1408 10.0059C22.0171 10.157 21.862 10.227 21.6529 10.227C21.5869 10.227 21.5418 10.206 21.4969 10.1543C21.2395 9.8577 21.2405 8.9007 21.3236 8.31542C21.3368 8.22214 21.3088 8.12717 21.2468 8.05573C21.1849 7.98439 21.095 7.94333 21.0005 7.94333C20.4393 7.94333 20.2265 8.58177 20.0386 9.14501C19.9563 9.39261 19.8027 9.85292 19.6956 9.90073C19.4982 9.90073 19.3705 9.32089 19.3694 8.9217C19.3688 8.7417 19.223 8.59611 19.0431 8.59611C19.0431 8.59611 19.0429 8.59611 19.0426 8.59611C18.8626 8.59611 18.7168 8.74198 18.7168 8.92198C18.7168 9.67442 18.9731 10.5531 19.6955 10.5531C20.2335 10.5531 20.4514 9.96692 20.6338 9.42214C20.6655 9.85536 20.7634 10.3042 21.0038 10.5815C21.1729 10.7764 21.3972 10.8793 21.6529 10.8793C22.0557 10.8793 22.3987 10.7203 22.6453 10.4195C22.69 10.3652 22.7284 10.3026 22.7664 10.2395C22.9558 10.5088 23.1882 10.6864 23.45 10.7525C23.5268 10.7719 23.6041 10.7818 23.6805 10.7818C23.9323 10.7818 24.1784 10.6779 24.3909 10.4781C24.4351 10.4365 24.4662 10.3912 24.4998 10.3465C24.5796 10.3693 24.6605 10.3828 24.7409 10.3828C25.0052 10.3828 25.2596 10.2764 25.4175 10.175C25.5685 10.0782 25.6122 9.87814 25.5163 9.72645C25.4202 9.57514 25.2192 9.52986 25.0671 9.62483C25.0643 9.62614 24.8464 9.75139 24.6978 9.72195C24.6982 9.3643 24.5689 8.98451 24.4507 8.64992C24.3835 8.45933 24.3145 8.26414 24.282 8.10458C24.3089 8.12727 24.3351 8.1508 24.3587 8.17367C24.4858 8.30108 24.6924 8.30108 24.8198 8.17367C24.8409 8.15258 24.8531 8.12699 24.8672 8.10233C25.2053 8.56817 25.9008 9.54711 26.6163 10.6756C26.7528 12.0626 26.8727 13.8319 26.8727 15.7726C26.8727 15.9528 27.0187 16.0988 27.1989 16.0988C27.3791 16.0992 27.5252 15.9534 27.5252 15.773Z" fill="#F5F5F5"/>
<path d="M27.8498 8.59645C27.8498 8.77673 27.9958 8.9227 28.176 8.9227C28.3562 8.9227 28.5023 8.77682 28.5023 8.59645C28.5023 8.21254 28.2019 7.59229 28.1416 7.47182C28.061 7.31095 27.8652 7.24598 27.7039 7.32595C27.5427 7.40657 27.4773 7.60251 27.558 7.76367C27.6757 7.99907 27.8498 8.42629 27.8498 8.59645Z" fill="#F5F5F5"/>
<path d="M26.3657 15.8099C26.2058 15.7283 26.0093 15.793 25.9278 15.9536C25.8927 16.022 25.8384 16.0983 25.7926 16.1473C25.7782 16.0176 25.8127 15.7586 25.8785 15.5439C25.9223 15.4006 25.8628 15.2457 25.7345 15.1686C25.6066 15.0913 25.4417 15.1113 25.3358 15.2174L24.6834 15.8698C24.556 15.9972 24.556 16.2036 24.6834 16.331C24.8109 16.4584 25.0173 16.4584 25.1447 16.331L25.1613 16.3144C25.1895 16.4454 25.2435 16.5648 25.3359 16.6573C25.4583 16.7796 25.6061 16.8443 25.7598 16.8443C25.7896 16.8443 25.8195 16.8417 25.8495 16.837C26.2191 16.7771 26.4491 16.3697 26.5108 16.2463C26.591 16.0854 26.526 15.8909 26.3657 15.8099Z" fill="#F5F5F5"/>
<path d="M26.2394 13.1839H23.9402C23.9605 13.1027 23.9815 13.0251 24.003 12.9516C24.9199 12.7611 25.4648 12.4651 25.625 12.0702C25.6805 11.9332 25.7383 11.6564 25.5023 11.3381C25.2896 11.0513 24.9894 10.9227 24.6776 10.9864C24.214 11.0803 23.801 11.5798 23.5046 12.3795C22.5837 12.5372 21.9942 12.8677 21.621 13.1939C21.4886 11.857 20.9697 11.0629 20.9444 11.0251C20.8444 10.875 20.6417 10.8345 20.4921 10.9345C20.3422 11.0346 20.3017 11.2369 20.4015 11.3869C20.4074 11.3958 20.9992 12.3008 20.9992 13.8157C20.9992 15.3048 19.8118 16.4255 19.0418 16.4255C18.6756 16.4255 18.5152 15.9902 18.4448 15.6219C19.1987 15.0935 19.8639 14.4821 20.0108 13.8947C20.2097 13.0998 19.9595 12.5139 19.7939 12.1263C19.7861 12.1085 19.778 12.0893 19.7697 12.0696C19.7767 12.0759 19.7834 12.0826 19.7901 12.089C19.9172 12.2164 20.1238 12.2164 20.2512 12.089C20.3786 11.9616 20.3786 11.7551 20.2512 11.6277C20.0605 11.4368 19.6902 11.137 19.3536 11.2779C19.2113 11.3369 19.0418 11.4853 19.0418 11.8583C19.0418 12.0269 19.1122 12.1915 19.1938 12.3827C19.3407 12.7265 19.5234 13.1543 19.3777 13.7366C19.2916 14.0812 18.8684 14.4993 18.3099 14.9144C18.25 14.8428 18.1636 14.7947 18.0631 14.7947H18.0625C17.8825 14.795 17.7368 14.9405 17.7368 15.1205C17.7368 15.1792 17.7394 15.242 17.7431 15.3064C17.045 15.7585 16.2549 16.177 15.6443 16.4547C15.4804 16.5293 15.4079 16.7226 15.4824 16.8867C15.5371 17.0068 15.6556 17.0779 15.7795 17.0779C15.8247 17.0779 15.8707 17.0687 15.9144 17.0486C16.0977 16.9653 16.9684 16.5596 17.8628 16.0054C18.0275 16.5646 18.3765 17.078 19.0418 17.078C19.8244 17.078 20.7122 16.4381 21.2245 15.4827C21.2864 15.5919 21.3575 15.6965 21.4423 15.7941C22.2635 16.741 23.8673 16.7518 23.9352 16.7518C24.1109 16.7518 24.2549 16.6129 24.2613 16.4374C24.2675 16.2618 24.1337 16.1127 23.9586 16.1003C23.9559 16.1 23.696 16.0714 23.5514 15.9025C23.4641 15.8006 23.4292 15.6604 23.4446 15.4741C23.478 15.0721 24.7748 14.7715 25.9177 14.7538C26.054 14.7515 26.1745 14.6652 26.2202 14.5369L26.5464 13.6194C26.5819 13.5197 26.5667 13.4085 26.5055 13.3222C26.445 13.2354 26.3453 13.1839 26.2394 13.1839ZM24.8075 11.626C24.8136 11.6248 24.8219 11.6228 24.8323 11.6228C24.8635 11.6228 24.9127 11.6381 24.9784 11.7267C24.9907 11.7433 25.0305 11.7999 25.0205 11.8249C24.983 11.9172 24.7578 12.0698 24.2886 12.2081C24.4949 11.8054 24.6967 11.6483 24.8075 11.626ZM22.8373 15.9144C22.5059 15.8067 22.1681 15.636 21.9343 15.3655C21.6773 15.0683 21.5825 14.6924 21.6447 14.2167C21.6541 14.1917 21.6755 14.1425 21.7128 14.0784C22.1721 14.0363 23.3994 14.2174 23.4845 14.5688C23.1059 14.762 22.8271 15.0337 22.7948 15.42C22.7786 15.6138 22.7984 15.7778 22.8373 15.9144Z" fill="#F5F5F5"/>
<path d="M29.7905 8.49374L29.4642 7.51499C29.4116 7.35768 29.2484 7.26365 29.0865 7.29927C28.9238 7.33405 28.8135 7.48527 28.8301 7.65065C29.0552 9.90177 29.481 14.2918 29.481 14.7952C29.481 15.2473 28.6769 16.1373 27.3777 16.787C27.2166 16.8677 27.1511 17.0635 27.2318 17.2248C27.289 17.3391 27.4042 17.405 27.524 17.405C27.5729 17.405 27.6228 17.3939 27.6696 17.3706C28.8563 16.7772 30.1335 15.7182 30.1335 14.7952C30.1335 14.3133 29.8001 10.8452 29.6092 8.89705C29.7637 8.83105 29.8446 8.6563 29.7905 8.49374Z" fill="#F5F5F5"/>
<path d="M32.5136 11.4372C32.5764 11.5 32.6598 11.5328 32.7444 11.5328C32.7995 11.5328 32.8551 11.5189 32.9055 11.4901C33.0331 11.4174 33.0965 11.2684 33.0604 11.126C33.002 10.8967 32.9825 10.6099 33.0134 10.4927C33.1769 10.4978 33.3285 10.3815 33.3525 10.2129C33.3779 10.0345 33.2541 9.86916 33.0758 9.84376C32.8601 9.81451 32.6707 9.87788 32.5384 10.025C32.4527 10.1206 32.4017 10.2432 32.3741 10.3751L31.9963 9.99732C31.8689 9.86991 31.6624 9.86991 31.535 9.99732C31.4076 10.1247 31.4076 10.3312 31.535 10.4586L32.5136 11.4372Z" fill="#F5F5F5"/>
<path d="M33.2463 11.7771L32.023 12.6538C31.8766 12.7586 31.8428 12.9625 31.9478 13.1091C32.0115 13.1979 32.1117 13.2451 32.2134 13.2451C32.2792 13.2451 32.3456 13.2253 32.4031 13.184L33.6265 12.3072C33.7728 12.2024 33.8067 11.9985 33.7017 11.852C33.5965 11.7053 33.3923 11.6712 33.2463 11.7771Z" fill="#F5F5F5"/>
<path d="M33.139 13.0046C33.0364 13.1368 33.0511 13.3228 33.1676 13.4372C33.1816 13.4608 33.2452 13.5856 33.2337 13.9068C33.2273 14.0871 33.3681 14.2381 33.5481 14.2445C33.5521 14.2448 33.5561 14.2448 33.5599 14.2448C33.7349 14.2448 33.8795 14.1061 33.8858 13.9303C33.9095 13.2645 33.6917 13.0212 33.5969 12.9475C33.4549 12.8364 33.2496 12.8625 33.139 13.0046Z" fill="#F5F5F5"/>
<path d="M35.9849 15.4064C36.1651 15.4064 36.3111 15.2605 36.3111 15.0801C36.3111 14.5988 36.2864 14.0614 36.246 13.5024C36.5695 14.0325 36.8382 14.5212 37.0105 14.9231C37.0634 15.047 37.1838 15.1209 37.3104 15.1209C37.3533 15.1209 37.3969 15.1126 37.4388 15.0945C37.6043 15.0234 37.681 14.8316 37.61 14.6663C37.3113 13.9693 36.7531 13.046 36.1174 12.0929C35.9894 10.8955 35.8222 9.72222 35.6923 8.88063C35.7614 8.88766 35.8331 8.87079 35.896 8.82991C35.999 8.76391 36.0473 8.64925 36.0404 8.53516C36.0487 8.56722 36.0577 8.59938 36.0765 8.62891C36.0787 8.6321 36.2884 8.97832 36.1954 9.42766C36.1588 9.60382 36.2723 9.7765 36.4488 9.81306C36.4711 9.81747 36.4934 9.81982 36.5151 9.81982C36.6665 9.81982 36.8023 9.71369 36.8344 9.55957C36.9816 8.84688 36.6414 8.30154 36.627 8.27857C36.5301 8.12688 36.3284 8.08235 36.1764 8.17854C36.073 8.24444 36.0241 8.35919 36.0307 8.47357C36.0223 8.44132 36.013 8.40888 35.994 8.37935L35.4434 7.52304C35.3593 7.39235 35.1947 7.33948 35.0503 7.39563C34.9055 7.45235 34.8207 7.60301 34.8476 7.75591C34.8522 7.7816 35.1015 9.21316 35.3225 10.9386C35.0723 10.5855 34.8223 10.2402 34.5798 9.91057C34.5404 9.41697 34.5008 8.96069 34.4666 8.58335C34.4846 8.57801 34.5023 8.57097 34.5197 8.56235C34.6808 8.48172 34.7463 8.28579 34.6655 8.12463L34.3393 7.47223C34.2689 7.33141 34.1082 7.26129 33.9569 7.3046C33.8058 7.34857 33.7072 7.49379 33.7229 7.65054C33.7618 8.03988 33.8023 8.47085 33.8421 8.92357C33.6357 8.6516 33.4448 8.4026 33.2814 8.19176C33.3133 8.16438 33.3405 8.13035 33.3606 8.09013C33.4412 7.92898 33.3758 7.73304 33.2147 7.65241L32.5623 7.32616C32.4254 7.25801 32.2593 7.29373 32.1626 7.41288C32.0664 7.53204 32.0659 7.7021 32.1617 7.82191C32.1793 7.84385 32.9826 8.85072 33.9434 10.1503C34.1101 12.3057 34.2211 14.5479 34.0643 15.018C34.0356 15.1039 33.9856 15.2053 33.9386 15.2088C33.7415 15.2362 33.2708 14.7954 33.0345 14.3229C32.8983 14.0508 32.7023 14.0225 32.5975 14.0272C32.2469 14.0489 32.1101 14.4347 31.8615 15.135C31.6833 15.6367 31.4618 16.2605 31.2132 16.5157C31.0785 16.3511 30.9043 15.7988 30.8076 15.2313C30.8529 15.3568 30.9704 15.4475 31.1116 15.4475C31.2918 15.4475 31.4378 15.3016 31.4378 15.1213C31.4378 14.6347 31.0976 10.9296 30.9076 8.8991C31.0663 8.83535 31.1497 8.65797 31.0949 8.49354L30.7687 7.51479C30.7162 7.35748 30.5553 7.26466 30.3916 7.29879C30.2293 7.33319 30.1186 7.48385 30.1343 7.64894C30.3561 9.97619 30.7717 14.4713 30.7847 15.0917C30.7838 15.0861 30.7827 15.0807 30.782 15.0751C30.7566 14.8966 30.5901 14.7743 30.4129 14.7982C30.2345 14.824 30.1107 14.9891 30.1361 15.1674C30.2314 15.8342 30.4748 16.9807 31.0355 17.1675C31.0797 17.1825 31.1393 17.1958 31.2093 17.1958C31.3379 17.1958 31.5012 17.1502 31.6684 16.983C32.0237 16.6277 32.2641 15.9504 32.4763 15.3531C32.5242 15.218 32.581 15.0581 32.6345 14.9211C32.9337 15.3582 33.4559 15.9023 33.9849 15.8597C34.1709 15.8464 34.5093 15.7464 34.6833 15.2245C34.8567 14.7041 34.7882 12.8892 34.6713 11.1516C34.9461 11.5368 35.2212 11.9313 35.4837 12.3209C35.5855 13.2978 35.6583 14.2766 35.6583 15.0805C35.6587 15.2604 35.8048 15.4064 35.9849 15.4064Z" fill="#F5F5F5"/>
<path d="M38.4617 13.69C38.2306 11.9684 37.9087 9.97401 37.7048 8.75002C37.7969 8.7727 37.8972 8.75414 37.9781 8.69199C38.1214 8.58277 38.1489 8.37783 38.0395 8.23486L37.4482 7.46002C37.357 7.34086 37.196 7.29886 37.0583 7.35905C36.9205 7.41924 36.8417 7.56586 36.8674 7.71399C36.8733 7.74736 37.4551 11.0963 37.8149 13.7766C37.9523 14.8008 37.7517 15.7162 37.2778 16.2246C36.9732 16.5512 36.5696 16.699 36.0811 16.6706C35.9018 16.661 35.7463 16.796 35.735 16.9757C35.7238 17.1554 35.8602 17.3103 36.0401 17.3217C36.0952 17.3252 36.1495 17.3267 36.2033 17.3267C36.8185 17.3267 37.3524 17.1013 37.755 16.6692C38.3699 16.0099 38.6275 14.9238 38.4617 13.69Z" fill="#F5F5F5"/>
<path d="M34.8729 15.8412C34.753 15.9715 34.7622 16.1767 34.8891 16.2997C34.9068 16.3169 34.928 16.3507 34.9281 16.3673C34.9283 16.3765 34.915 16.404 34.8788 16.4403C34.7514 16.5677 34.7514 16.7741 34.8788 16.9015C34.9425 16.9653 35.0259 16.9972 35.1095 16.9972C35.1929 16.9972 35.2764 16.9653 35.3402 16.9015C35.5471 16.6947 35.5851 16.4848 35.5804 16.3449C35.5703 16.0439 35.3653 15.8496 35.3244 15.8136C35.191 15.6976 34.9928 15.7116 34.8729 15.8412Z" fill="#F5F5F5"/>
<path d="M33.7222 22.9954H33.396H31.4387V22.6691C31.4387 22.4889 31.2926 22.3429 31.1124 22.3429C30.9322 22.3429 30.7862 22.4888 30.7862 22.6691V22.9954H13.4961C14.1485 23.6478 15.4534 23.9741 16.4322 23.9741C17.1341 23.9741 25.8895 23.9741 30.7862 23.9741V24.6265C30.7862 24.8068 30.9322 24.9528 31.1124 24.9528H33.7222C34.262 24.9528 34.701 24.5138 34.701 23.974C34.701 23.4343 34.262 22.9954 33.7222 22.9954ZM33.7222 24.3003H31.4386V23.974C33.0108 23.974 34.0484 23.974 34.0484 23.974L33.9898 23.7985C34.0237 23.8498 34.0484 23.9079 34.0484 23.974C34.0484 24.1541 33.9021 24.3003 33.7222 24.3003Z" fill="#F5F5F5"/>
</g>
<defs>
<clipPath id="clip0">
<rect width="48" height="31.48" fill="white"/>
</clipPath>
</defs>
</svg>
