<svg width="48" height="30" viewBox="0 0 48 30" fill="none" xmlns="http://www.w3.org/2000/svg">
<g clip-path="url(#clip0)">
<path d="M47.2447 31.6163H1.08026C0.625011 31.6163 0.255859 31.2471 0.255859 30.7919V1.11469C0.255859 0.659435 0.625011 0.290283 1.08026 0.290283H47.2448C47.7 0.290283 48.0692 0.659435 48.0692 1.11469V30.7919C48.0691 31.2472 47.6999 31.6163 47.2447 31.6163Z" fill="#F5F5F5"/>
<path d="M48.0691 2.54628H0.255859V0.960879C0.255859 0.505626 0.625011 0.136475 1.08026 0.136475H47.2448C47.7 0.136475 48.0692 0.505626 48.0692 0.960879L48.0691 2.54628Z" fill="#FF4B55"/>
<path d="M48.0691 9.77515H0.255859V12.1849H48.0691V9.77515Z" fill="#FF4B55"/>
<path d="M48.0691 4.95569H0.255859V7.3654H48.0691V4.95569Z" fill="#FF4B55"/>
<path d="M48.0691 17.0043H1.08026C0.625011 17.0043 0.255859 16.6351 0.255859 16.1799V14.5945H48.0691V17.0043Z" fill="#FF4B55"/>
<path d="M48.0691 24.2341H0.255859V26.6438H48.0691V24.2341Z" fill="#FF4B55"/>
<path d="M47.2447 31.4625H1.08026C0.625011 31.4625 0.255859 31.0933 0.255859 30.6381V29.0527H48.0691V30.6382C48.0691 31.0934 47.6999 31.4625 47.2447 31.4625Z" fill="#FF4B55"/>
<path d="M48.0691 19.4144H0.255859V21.8242H48.0691V19.4144Z" fill="#FF4B55"/>
<path d="M21.6386 0.137451H1.02948C0.57423 0.137451 0.205078 0.506509 0.205078 0.961762V16.1808C0.205078 16.636 0.57423 17.0052 1.02948 17.0052H21.6387C22.0939 17.0052 22.4631 16.636 22.4631 16.1808V0.961762C22.463 0.506509 22.0938 0.137451 21.6386 0.137451Z" fill="#41479B"/>
<path d="M2.41753 1.72099L2.60001 2.26823L3.17685 2.27262C3.25156 2.27327 3.28247 2.36853 3.22242 2.41288L2.75839 2.75561L2.93246 3.30555C2.95506 3.37671 2.87391 3.43573 2.81311 3.39221L2.34385 3.05687L1.87459 3.39231C1.8138 3.43573 1.73283 3.37681 1.75525 3.30565L1.92932 2.7557L1.46528 2.41298C1.40524 2.36853 1.43615 2.27337 1.51086 2.27271L2.0877 2.26832L2.27017 1.72109C2.2937 1.65012 2.39381 1.65012 2.41753 1.72099Z" fill="#F5F5F5"/>
<path d="M2.41753 4.5836L2.60001 5.13083L3.17685 5.13522C3.25156 5.13588 3.28247 5.23113 3.22242 5.27549L2.75839 5.61821L2.93246 6.16816C2.95506 6.23932 2.87391 6.29834 2.81311 6.25482L2.34385 5.91948L1.87459 6.25492C1.8138 6.29834 1.73283 6.23941 1.75525 6.16825L1.92932 5.61831L1.46528 5.27558C1.40524 5.23113 1.43615 5.13597 1.51086 5.13532L2.0877 5.13093L2.27017 4.58369C2.2937 4.51281 2.39381 4.51281 2.41753 4.5836Z" fill="#F5F5F5"/>
<path d="M2.41753 7.44614L2.60001 7.99338L3.17685 7.99777C3.25156 7.99842 3.28247 8.09368 3.22242 8.13804L2.75839 8.48076L2.93246 9.03071C2.95506 9.10187 2.87391 9.16089 2.81311 9.11737L2.34385 8.78202L1.87459 9.11746C1.8138 9.16089 1.73283 9.10196 1.75525 9.0308L1.92932 8.48085L1.46528 8.13813C1.40524 8.09368 1.43615 7.99852 1.51086 7.99787L2.0877 7.99348L2.27017 7.44624C2.2937 7.37536 2.39381 7.37536 2.41753 7.44614Z" fill="#F5F5F5"/>
<path d="M2.41753 10.3089L2.60001 10.8561L3.17685 10.8605C3.25156 10.8612 3.28247 10.9564 3.22242 11.0008L2.75839 11.3435L2.93246 11.8934C2.95506 11.9646 2.87391 12.0236 2.81311 11.9801L2.34385 11.6448L1.87459 11.9802C1.8138 12.0236 1.73283 11.9647 1.75525 11.8935L1.92932 11.3436L1.46528 11.0009C1.40524 10.9564 1.43615 10.8613 1.51086 10.8606L2.0877 10.8562L2.27017 10.309C2.2937 10.238 2.39381 10.238 2.41753 10.3089Z" fill="#F5F5F5"/>
<path d="M2.41753 13.1714L2.60001 13.7186L3.17685 13.723C3.25156 13.7237 3.28247 13.8189 3.22242 13.8633L2.75839 14.206L2.93246 14.7559C2.95506 14.8271 2.87391 14.8861 2.81311 14.8426L2.34385 14.5073L1.87459 14.8427C1.8138 14.8861 1.73283 14.8272 1.75525 14.756L1.92932 14.2061L1.46528 13.8634C1.40524 13.8189 1.43615 13.7238 1.51086 13.7231L2.0877 13.7187L2.27017 13.1715C2.2937 13.1004 2.39381 13.1004 2.41753 13.1714Z" fill="#F5F5F5"/>
<path d="M4.64019 3.12438L4.82267 3.67162L5.39951 3.67601C5.47421 3.67666 5.50512 3.77191 5.44508 3.81627L4.98105 4.15899L5.15512 4.70894C5.17772 4.7801 5.09656 4.83912 5.03577 4.7956L4.56651 4.46016L4.09725 4.7956C4.03645 4.83902 3.95549 4.7801 3.9779 4.70894L4.15197 4.15899L3.68794 3.81627C3.62789 3.77182 3.6588 3.67666 3.73351 3.67601L4.31035 3.67162L4.49283 3.12438C4.51627 3.05359 4.61656 3.05359 4.64019 3.12438Z" fill="#F5F5F5"/>
<path d="M4.64019 5.987L4.82267 6.53424L5.39951 6.53863C5.47421 6.53928 5.50512 6.63453 5.44508 6.67889L4.98105 7.02161L5.15512 7.57156C5.17772 7.64272 5.09656 7.70174 5.03577 7.65822L4.56651 7.32278L4.09725 7.65822C4.03645 7.70165 3.95549 7.64281 3.9779 7.57156L4.15197 7.02161L3.68794 6.67889C3.62789 6.63444 3.6588 6.53928 3.73351 6.53863L4.31035 6.53424L4.49283 5.987C4.51627 5.91612 4.61656 5.91612 4.64019 5.987Z" fill="#F5F5F5"/>
<path d="M4.64019 8.84979L4.82267 9.39703L5.39951 9.40142C5.47421 9.40207 5.50512 9.49732 5.44508 9.54168L4.98105 9.8844L5.15512 10.4343C5.17772 10.5055 5.09656 10.5645 5.03577 10.521L4.56651 10.1856L4.09725 10.521C4.03645 10.5644 3.95549 10.5055 3.9779 10.4343L4.15197 9.8844L3.68794 9.54168C3.62789 9.49723 3.6588 9.40207 3.73351 9.40142L4.31035 9.39703L4.49283 8.84979C4.51627 8.77891 4.61656 8.77891 4.64019 8.84979Z" fill="#F5F5F5"/>
<path d="M4.64019 11.7124L4.82267 12.2596L5.39951 12.264C5.47421 12.2647 5.50512 12.3599 5.44508 12.4043L4.98105 12.747L5.15512 13.297C5.17772 13.3681 5.09656 13.4271 5.03577 13.3836L4.56651 13.0482L4.09725 13.3836C4.03645 13.427 3.95549 13.3681 3.9779 13.297L4.15197 12.747L3.68794 12.4043C3.62789 12.3598 3.6588 12.2647 3.73351 12.264L4.31035 12.2596L4.49283 11.7124C4.51627 11.6416 4.61656 11.6416 4.64019 11.7124Z" fill="#F5F5F5"/>
<path d="M6.86089 1.72088L7.04337 2.26812L7.62021 2.27251C7.69492 2.27316 7.72583 2.36842 7.66578 2.41277L7.20175 2.7555L7.37582 3.30544C7.39842 3.3766 7.31727 3.43562 7.25647 3.3921L6.78721 3.05666L6.31795 3.3921C6.25716 3.43553 6.17619 3.3766 6.19861 3.30544L6.37268 2.7555L5.90864 2.41277C5.8486 2.36832 5.87951 2.27316 5.95422 2.27251L6.53106 2.26812L6.71353 1.72088C6.73706 1.65 6.83727 1.65 6.86089 1.72088Z" fill="#F5F5F5"/>
<path d="M6.86089 4.58349L7.04337 5.13072L7.62021 5.13511C7.69492 5.13577 7.72583 5.23102 7.66578 5.27538L7.20175 5.6181L7.37582 6.16805C7.39842 6.23921 7.31727 6.29823 7.25647 6.25471L6.78721 5.91927L6.31795 6.25471C6.25716 6.29813 6.17619 6.23921 6.19861 6.16805L6.37268 5.6181L5.90864 5.27538C5.8486 5.23093 5.87951 5.13577 5.95422 5.13511L6.53106 5.13072L6.71353 4.58349C6.73706 4.5127 6.83727 4.5127 6.86089 4.58349Z" fill="#F5F5F5"/>
<path d="M6.86089 7.44603L7.04337 7.99327L7.62021 7.99766C7.69492 7.99831 7.72583 8.09356 7.66578 8.13792L7.20175 8.48064L7.37582 9.03059C7.39842 9.10175 7.31727 9.16077 7.25647 9.11725L6.78721 8.78181L6.31795 9.11725C6.25716 9.16067 6.17619 9.10175 6.19861 9.03059L6.37268 8.48064L5.90864 8.13792C5.8486 8.09347 5.87951 7.99831 5.95422 7.99766L6.53106 7.99327L6.71353 7.44603C6.73706 7.37525 6.83727 7.37525 6.86089 7.44603Z" fill="#F5F5F5"/>
<path d="M6.86089 10.309L7.04337 10.8563L7.62021 10.8606C7.69492 10.8613 7.72583 10.9565 7.66578 11.0009L7.20175 11.3436L7.37582 11.8936C7.39842 11.9647 7.31727 12.0237 7.25647 11.9802L6.78721 11.6448L6.31795 11.9802C6.25716 12.0237 6.17619 11.9647 6.19861 11.8936L6.37268 11.3436L5.90864 11.0009C5.8486 10.9565 5.87951 10.8613 5.95422 10.8606L6.53106 10.8563L6.71353 10.309C6.73706 10.2381 6.83727 10.2381 6.86089 10.309Z" fill="#F5F5F5"/>
<path d="M6.86089 13.1715L7.04337 13.7188L7.62021 13.7231C7.69492 13.7238 7.72583 13.8191 7.66578 13.8634L7.20175 14.2061L7.37582 14.7561C7.39842 14.8272 7.31727 14.8863 7.25647 14.8427L6.78721 14.5073L6.31795 14.8427C6.25716 14.8862 6.17619 14.8272 6.19861 14.7561L6.37268 14.2061L5.90864 13.8634C5.8486 13.819 5.87951 13.7238 5.95422 13.7231L6.53106 13.7188L6.71353 13.1715C6.73706 13.1005 6.83727 13.1005 6.86089 13.1715Z" fill="#F5F5F5"/>
<path d="M9.08355 3.12438L9.26602 3.67162L9.84287 3.67601C9.91757 3.67666 9.94848 3.77191 9.88844 3.81627L9.42441 4.15899L9.59848 4.70894C9.62108 4.7801 9.53992 4.83912 9.47913 4.7956L9.00987 4.46016L8.54061 4.7956C8.47981 4.83902 8.39885 4.7801 8.42126 4.70894L8.59533 4.15899L8.1313 3.81627C8.07125 3.77182 8.10216 3.67666 8.17687 3.67601L8.75371 3.67162L8.93619 3.12438C8.95963 3.05359 9.05992 3.05359 9.08355 3.12438Z" fill="#F5F5F5"/>
<path d="M9.08355 5.987L9.26602 6.53424L9.84287 6.53863C9.91757 6.53928 9.94848 6.63453 9.88844 6.67889L9.42441 7.02161L9.59848 7.57156C9.62108 7.64272 9.53992 7.70174 9.47913 7.65822L9.00987 7.32278L8.54061 7.65822C8.47981 7.70165 8.39885 7.64281 8.42126 7.57156L8.59533 7.02161L8.1313 6.67889C8.07125 6.63444 8.10216 6.53928 8.17687 6.53863L8.75371 6.53424L8.93619 5.987C8.95963 5.91612 9.05992 5.91612 9.08355 5.987Z" fill="#F5F5F5"/>
<path d="M9.08355 8.84979L9.26602 9.39703L9.84287 9.40142C9.91757 9.40207 9.94848 9.49732 9.88844 9.54168L9.42441 9.8844L9.59848 10.4343C9.62108 10.5055 9.53992 10.5645 9.47913 10.521L9.00987 10.1856L8.54061 10.521C8.47981 10.5644 8.39885 10.5055 8.42126 10.4343L8.59533 9.8844L8.1313 9.54168C8.07125 9.49723 8.10216 9.40207 8.17687 9.40142L8.75371 9.39703L8.93619 8.84979C8.95963 8.77891 9.05992 8.77891 9.08355 8.84979Z" fill="#F5F5F5"/>
<path d="M9.08355 11.7124L9.26602 12.2596L9.84287 12.264C9.91757 12.2647 9.94848 12.3599 9.88844 12.4043L9.42441 12.747L9.59848 13.297C9.62108 13.3681 9.53992 13.4271 9.47913 13.3836L9.00987 13.0482L8.54061 13.3836C8.47981 13.427 8.39885 13.3681 8.42126 13.297L8.59533 12.747L8.1313 12.4043C8.07125 12.3598 8.10216 12.2647 8.17687 12.264L8.75371 12.2596L8.93619 11.7124C8.95963 11.6416 9.05992 11.6416 9.08355 11.7124Z" fill="#F5F5F5"/>
<path d="M11.3043 1.72088L11.4868 2.26812L12.0637 2.27251C12.1384 2.27316 12.1693 2.36842 12.1092 2.41277L11.6452 2.7555L11.8193 3.30544C11.8419 3.3766 11.7607 3.43562 11.6999 3.3921L11.2306 3.05666L10.7613 3.3921C10.7005 3.43553 10.6196 3.3766 10.642 3.30544L10.816 2.7555L10.352 2.41277C10.292 2.36832 10.3229 2.27316 10.3976 2.27251L10.9744 2.26812L11.1569 1.72088C11.1805 1.65 11.2807 1.65 11.3043 1.72088Z" fill="#F5F5F5"/>
<path d="M11.3043 4.58349L11.4868 5.13072L12.0637 5.13511C12.1384 5.13577 12.1693 5.23102 12.1092 5.27538L11.6452 5.6181L11.8193 6.16805C11.8419 6.23921 11.7607 6.29823 11.6999 6.25471L11.2306 5.91927L10.7613 6.25471C10.7005 6.29813 10.6196 6.23921 10.642 6.16805L10.816 5.6181L10.352 5.27538C10.292 5.23093 10.3229 5.13577 10.3976 5.13511L10.9744 5.13072L11.1569 4.58349C11.1805 4.5127 11.2807 4.5127 11.3043 4.58349Z" fill="#F5F5F5"/>
<path d="M11.3043 7.44603L11.4868 7.99327L12.0637 7.99766C12.1384 7.99831 12.1693 8.09356 12.1092 8.13792L11.6452 8.48064L11.8193 9.03059C11.8419 9.10175 11.7607 9.16077 11.6999 9.11725L11.2306 8.78181L10.7613 9.11725C10.7005 9.16067 10.6196 9.10175 10.642 9.03059L10.816 8.48064L10.352 8.13792C10.292 8.09347 10.3229 7.99831 10.3976 7.99766L10.9744 7.99327L11.1569 7.44603C11.1805 7.37525 11.2807 7.37525 11.3043 7.44603Z" fill="#F5F5F5"/>
<path d="M11.3043 10.309L11.4868 10.8563L12.0637 10.8606C12.1384 10.8613 12.1693 10.9565 12.1092 11.0009L11.6452 11.3436L11.8193 11.8936C11.8419 11.9647 11.7607 12.0237 11.6999 11.9802L11.2306 11.6448L10.7613 11.9802C10.7005 12.0237 10.6196 11.9647 10.642 11.8936L10.816 11.3436L10.352 11.0009C10.292 10.9565 10.3229 10.8613 10.3976 10.8606L10.9744 10.8563L11.1569 10.309C11.1805 10.2381 11.2807 10.2381 11.3043 10.309Z" fill="#F5F5F5"/>
<path d="M11.3043 13.1715L11.4868 13.7188L12.0637 13.7231C12.1384 13.7238 12.1693 13.8191 12.1092 13.8634L11.6452 14.2061L11.8193 14.7561C11.8419 14.8272 11.7607 14.8863 11.6999 14.8427L11.2306 14.5073L10.7613 14.8427C10.7005 14.8862 10.6196 14.8272 10.642 14.7561L10.816 14.2061L10.352 13.8634C10.292 13.819 10.3229 13.7238 10.3976 13.7231L10.9744 13.7188L11.1569 13.1715C11.1805 13.1005 11.2807 13.1005 11.3043 13.1715Z" fill="#F5F5F5"/>
<path d="M13.5269 3.12438L13.7094 3.67162L14.2862 3.67601C14.3609 3.67666 14.3918 3.77191 14.3318 3.81627L13.8678 4.15899L14.0418 4.70894C14.0644 4.7801 13.9833 4.83912 13.9225 4.7956L13.4532 4.46016L12.984 4.7956C12.9232 4.83902 12.8422 4.7801 12.8646 4.70894L13.0387 4.15899L12.5747 3.81627C12.5146 3.77182 12.5455 3.67666 12.6202 3.67601L13.1971 3.67162L13.3795 3.12438C13.4032 3.05359 13.5033 3.05359 13.5269 3.12438Z" fill="#F5F5F5"/>
<path d="M13.5269 5.987L13.7094 6.53424L14.2862 6.53863C14.3609 6.53928 14.3918 6.63453 14.3318 6.67889L13.8678 7.02161L14.0418 7.57156C14.0644 7.64272 13.9833 7.70174 13.9225 7.65822L13.4532 7.32278L12.984 7.65822C12.9232 7.70165 12.8422 7.64281 12.8646 7.57156L13.0387 7.02161L12.5747 6.67889C12.5146 6.63444 12.5455 6.53928 12.6202 6.53863L13.1971 6.53424L13.3795 5.987C13.4032 5.91612 13.5033 5.91612 13.5269 5.987Z" fill="#F5F5F5"/>
<path d="M13.5269 8.84979L13.7094 9.39703L14.2862 9.40142C14.3609 9.40207 14.3918 9.49732 14.3318 9.54168L13.8678 9.8844L14.0418 10.4343C14.0644 10.5055 13.9833 10.5645 13.9225 10.521L13.4532 10.1856L12.984 10.521C12.9232 10.5644 12.8422 10.5055 12.8646 10.4343L13.0387 9.8844L12.5747 9.54168C12.5146 9.49723 12.5455 9.40207 12.6202 9.40142L13.1971 9.39703L13.3795 8.84979C13.4032 8.77891 13.5033 8.77891 13.5269 8.84979Z" fill="#F5F5F5"/>
<path d="M13.5269 11.7124L13.7094 12.2596L14.2862 12.264C14.3609 12.2647 14.3918 12.3599 14.3318 12.4043L13.8678 12.747L14.0418 13.297C14.0644 13.3681 13.9833 13.4271 13.9225 13.3836L13.4532 13.0482L12.984 13.3836C12.9232 13.427 12.8422 13.3681 12.8646 13.297L13.0387 12.747L12.5747 12.4043C12.5146 12.3598 12.5455 12.2647 12.6202 12.264L13.1971 12.2596L13.3795 11.7124C13.4032 11.6416 13.5033 11.6416 13.5269 11.7124Z" fill="#F5F5F5"/>
<path d="M15.7496 1.72088L15.932 2.26812L16.5089 2.27251C16.5836 2.27316 16.6145 2.36842 16.5545 2.41277L16.0904 2.7555L16.2645 3.30544C16.2871 3.3766 16.2059 3.43562 16.1451 3.3921L15.6759 3.05666L15.2066 3.3921C15.1458 3.43553 15.0649 3.3766 15.0873 3.30544L15.2613 2.7555L14.7973 2.41277C14.7373 2.36832 14.7682 2.27316 14.8429 2.27251L15.4197 2.26812L15.6022 1.72088C15.6256 1.65 15.7259 1.65 15.7496 1.72088Z" fill="#F5F5F5"/>
<path d="M15.7496 4.58349L15.932 5.13072L16.5089 5.13511C16.5836 5.13577 16.6145 5.23102 16.5545 5.27538L16.0904 5.6181L16.2645 6.16805C16.2871 6.23921 16.2059 6.29823 16.1451 6.25471L15.6759 5.91927L15.2066 6.25471C15.1458 6.29813 15.0649 6.23921 15.0873 6.16805L15.2613 5.6181L14.7973 5.27538C14.7373 5.23093 14.7682 5.13577 14.8429 5.13511L15.4197 5.13072L15.6022 4.58349C15.6256 4.5127 15.7259 4.5127 15.7496 4.58349Z" fill="#F5F5F5"/>
<path d="M15.7496 7.44603L15.932 7.99327L16.5089 7.99766C16.5836 7.99831 16.6145 8.09356 16.5545 8.13792L16.0904 8.48064L16.2645 9.03059C16.2871 9.10175 16.2059 9.16077 16.1451 9.11725L15.6759 8.78181L15.2066 9.11725C15.1458 9.16067 15.0649 9.10175 15.0873 9.03059L15.2613 8.48064L14.7973 8.13792C14.7373 8.09347 14.7682 7.99831 14.8429 7.99766L15.4197 7.99327L15.6022 7.44603C15.6256 7.37525 15.7259 7.37525 15.7496 7.44603Z" fill="#F5F5F5"/>
<path d="M15.7496 10.309L15.932 10.8563L16.5089 10.8606C16.5836 10.8613 16.6145 10.9565 16.5545 11.0009L16.0904 11.3436L16.2645 11.8936C16.2871 11.9647 16.2059 12.0237 16.1451 11.9802L15.6759 11.6448L15.2066 11.9802C15.1458 12.0237 15.0649 11.9647 15.0873 11.8936L15.2613 11.3436L14.7973 11.0009C14.7373 10.9565 14.7682 10.8613 14.8429 10.8606L15.4197 10.8563L15.6022 10.309C15.6256 10.2381 15.7259 10.2381 15.7496 10.309Z" fill="#F5F5F5"/>
<path d="M15.7496 13.1715L15.932 13.7188L16.5089 13.7231C16.5836 13.7238 16.6145 13.8191 16.5545 13.8634L16.0904 14.2061L16.2645 14.7561C16.2871 14.8272 16.2059 14.8863 16.1451 14.8427L15.6759 14.5073L15.2066 14.8427C15.1458 14.8862 15.0649 14.8272 15.0873 14.7561L15.2613 14.2061L14.7973 13.8634C14.7373 13.819 14.7682 13.7238 14.8429 13.7231L15.4197 13.7188L15.6022 13.1715C15.6256 13.1005 15.7259 13.1005 15.7496 13.1715Z" fill="#F5F5F5"/>
<path d="M17.9703 3.12438L18.1527 3.67162L18.7296 3.67601C18.8043 3.67666 18.8352 3.77191 18.7751 3.81627L18.3111 4.15899L18.4852 4.70894C18.5078 4.7801 18.4266 4.83912 18.3658 4.7956L17.8966 4.46016L17.4273 4.7956C17.3665 4.83902 17.2856 4.7801 17.308 4.70894L17.482 4.15899L17.018 3.81627C16.958 3.77182 16.9889 3.67666 17.0636 3.67601L17.6404 3.67162L17.8229 3.12438C17.8464 3.05359 17.9467 3.05359 17.9703 3.12438Z" fill="#F5F5F5"/>
<path d="M17.9703 5.987L18.1527 6.53424L18.7296 6.53863C18.8043 6.53928 18.8352 6.63453 18.7751 6.67889L18.3111 7.02161L18.4852 7.57156C18.5078 7.64272 18.4266 7.70174 18.3658 7.65822L17.8966 7.32278L17.4273 7.65822C17.3665 7.70165 17.2856 7.64281 17.308 7.57156L17.482 7.02161L17.018 6.67889C16.958 6.63444 16.9889 6.53928 17.0636 6.53863L17.6404 6.53424L17.8229 5.987C17.8464 5.91612 17.9467 5.91612 17.9703 5.987Z" fill="#F5F5F5"/>
<path d="M17.9703 8.84979L18.1527 9.39703L18.7296 9.40142C18.8043 9.40207 18.8352 9.49732 18.7751 9.54168L18.3111 9.8844L18.4852 10.4343C18.5078 10.5055 18.4266 10.5645 18.3658 10.521L17.8966 10.1856L17.4273 10.521C17.3665 10.5644 17.2856 10.5055 17.308 10.4343L17.482 9.8844L17.018 9.54168C16.958 9.49723 16.9889 9.40207 17.0636 9.40142L17.6404 9.39703L17.8229 8.84979C17.8464 8.77891 17.9467 8.77891 17.9703 8.84979Z" fill="#F5F5F5"/>
<path d="M17.9703 11.7124L18.1527 12.2596L18.7296 12.264C18.8043 12.2647 18.8352 12.3599 18.7751 12.4043L18.3111 12.747L18.4852 13.297C18.5078 13.3681 18.4266 13.4271 18.3658 13.3836L17.8966 13.0482L17.4273 13.3836C17.3665 13.427 17.2856 13.3681 17.308 13.297L17.482 12.747L17.018 12.4043C16.958 12.3598 16.9889 12.2647 17.0636 12.264L17.6404 12.2596L17.8229 11.7124C17.8464 11.6416 17.9467 11.6416 17.9703 11.7124Z" fill="#F5F5F5"/>
<path d="M20.1929 1.72088L20.3754 2.26812L20.9522 2.27251C21.0269 2.27316 21.0579 2.36842 20.9978 2.41277L20.5338 2.7555L20.7078 3.30544C20.7304 3.3766 20.6493 3.43562 20.5885 3.3921L20.1192 3.05666L19.65 3.3921C19.5892 3.43553 19.5082 3.3766 19.5306 3.30544L19.7047 2.7555L19.2407 2.41277C19.1806 2.36832 19.2115 2.27316 19.2862 2.27251L19.8631 2.26812L20.0456 1.72088C20.0691 1.65 20.1692 1.65 20.1929 1.72088Z" fill="#F5F5F5"/>
<path d="M20.1929 4.58349L20.3754 5.13072L20.9522 5.13511C21.0269 5.13577 21.0579 5.23102 20.9978 5.27538L20.5338 5.6181L20.7078 6.16805C20.7304 6.23921 20.6493 6.29823 20.5885 6.25471L20.1192 5.91927L19.65 6.25471C19.5892 6.29813 19.5082 6.23921 19.5306 6.16805L19.7047 5.6181L19.2407 5.27538C19.1806 5.23093 19.2115 5.13577 19.2862 5.13511L19.8631 5.13072L20.0456 4.58349C20.0691 4.5127 20.1692 4.5127 20.1929 4.58349Z" fill="#F5F5F5"/>
<path d="M20.1929 7.44603L20.3754 7.99327L20.9522 7.99766C21.0269 7.99831 21.0579 8.09356 20.9978 8.13792L20.5338 8.48064L20.7078 9.03059C20.7304 9.10175 20.6493 9.16077 20.5885 9.11725L20.1192 8.78181L19.65 9.11725C19.5892 9.16067 19.5082 9.10175 19.5306 9.03059L19.7047 8.48064L19.2407 8.13792C19.1806 8.09347 19.2115 7.99831 19.2862 7.99766L19.8631 7.99327L20.0456 7.44603C20.0691 7.37525 20.1692 7.37525 20.1929 7.44603Z" fill="#F5F5F5"/>
<path d="M20.1929 10.309L20.3754 10.8563L20.9522 10.8606C21.0269 10.8613 21.0579 10.9565 20.9978 11.0009L20.5338 11.3436L20.7078 11.8936C20.7304 11.9647 20.6493 12.0237 20.5885 11.9802L20.1192 11.6448L19.65 11.9802C19.5892 12.0237 19.5082 11.9647 19.5306 11.8936L19.7047 11.3436L19.2407 11.0009C19.1806 10.9565 19.2115 10.8613 19.2862 10.8606L19.8631 10.8563L20.0456 10.309C20.0691 10.2381 20.1692 10.2381 20.1929 10.309Z" fill="#F5F5F5"/>
<path d="M20.1929 13.1715L20.3754 13.7188L20.9522 13.7231C21.0269 13.7238 21.0579 13.8191 20.9978 13.8634L20.5338 14.2061L20.7078 14.7561C20.7304 14.8272 20.6493 14.8863 20.5885 14.8427L20.1192 14.5073L19.65 14.8427C19.5892 14.8862 19.5082 14.8272 19.5306 14.7561L19.7047 14.2061L19.2407 13.8634C19.1806 13.819 19.2115 13.7238 19.2862 13.7231L19.8631 13.7188L20.0456 13.1715C20.0691 13.1005 20.1692 13.1005 20.1929 13.1715Z" fill="#F5F5F5"/>
</g>
<defs>
<clipPath id="clip0">
<rect width="48" height="31.359" fill="white"/>
</clipPath>
</defs>
</svg>
