<svg width="48" height="30" viewBox="0 0 48 30" fill="none" xmlns="http://www.w3.org/2000/svg">
<g clip-path="url(#clip0)">
<path d="M18.4355 0H0V32H18.4355H48.001V0H18.4355Z" fill="#D80027"/>
<path d="M24.0002 6.74414L26.1249 13.2831H33.0004L27.4379 17.3243L29.5627 23.8634L24.0002 19.8221L18.4377 23.8634L20.5625 17.3243L15 13.2831H21.8755L24.0002 6.74414Z" fill="#FFDA44"/>
<path d="M48 0H0V32.0003H48V0Z" fill="#F0F0F0"/>
<path d="M24 24.999C28.9706 24.999 33 20.9696 33 15.999C33 11.0285 28.9706 6.99902 24 6.99902C19.0294 6.99902 15 11.0285 15 15.999C15 20.9696 19.0294 24.999 24 24.999Z" fill="#D80027"/>
</g>
<defs>
<clipPath id="clip0">
<rect width="48" height="31.48" fill="white"/>
</clipPath>
</defs>
</svg>
